<svg xmlns="http://www.w3.org/2000/svg" width="350.7016" height="165.141" viewBox="0 0 350.7016 165.141"><defs><style>.cls-1{fill:#00a0ca;stroke:#383838;stroke-miterlimit:10;stroke-width:3px;opacity:0.9;}.cls-2{fill:#fff;}</style></defs><title>Asset 12sadna_btn</title><g id="Layer_2" data-name="Layer 2"><g id="Layer_1-2" data-name="Layer 1"><path class="cls-1" d="M344.9409,34.77c-.5975-9.1344-3.4973-18.1669-5.4664-27.2267-.9435-4.3394-3.835-6.1531-9.3572-5.9768-11.3193.3625-22.6668.0153-34.0008.1238C213.2073,2.4882,130.2147-.75,47.4146,5.1015c-13.0163.92-25.9035,3.2156-38.83,4.9844-5.0595.6922-7.3406,2.9911-7.062,7.8069,1.56,26.9946,2.378,81.6833,4.3067,108.6571.7445,10.407,3.686,20.7056,5.7379,31.0381.8645,4.3558,3.6847,6.0348,9.2436,6.0064,41.5608-.21,83.1235-.115,124.6857-.1139,27.2705,0,54.5526.4326,81.8071-.1227,27.225-.5542,54.452-1.74,81.6179-3.3756,11.5246-.6932,22.9209-3.1269,34.3249-4.9965,4.1507-.68,6.1506-2.8848,5.94-6.9362C347.7027,119.5118,346.8073,63.2886,344.9409,34.77Z"/><path class="cls-2" d="M109.5364,92.3406l-.377-2.1162,5.51-1.0449a7.943,7.943,0,0,0,2.6826-.957,4.429,4.429,0,0,0,1.5947-1.6817,8.1008,8.1008,0,0,0,.8125-2.581,27.17,27.17,0,0,0,.2891-3.6973q.0439-2.1606.0439-5.0313h2.668q0,3.0734-.1162,5.4659a24.6122,24.6122,0,0,1-.5215,4.19,8.9,8.9,0,0,1-1.2754,3.0742,6.7538,6.7538,0,0,1-2.3643,2.1025,12.7674,12.7674,0,0,1-3.7841,1.2618Zm4.6972-2.8711-3.7109-14.2383h2.668l3.625,14.2383Z"/><path class="cls-2" d="M127.5442,91.7322l-1.711-14.4131,2.4942-1.3056,1.5664,13.2822a11.9621,11.9621,0,0,0,2.2617-.377,7.6027,7.6027,0,0,0,1.9434-.8115,5.1481,5.1481,0,0,0,1.4785-1.334,5.627,5.627,0,0,0,.914-1.9863,9.1027,9.1027,0,0,0,.2168-2.77v-.7549a5.3023,5.3023,0,0,0-.3613-2.0147,3.1864,3.1864,0,0,0-1.0879-1.4072,2.9528,2.9528,0,0,0-1.7695-.5215h-7.6563l-.2607-2.0879h8.1494a5.1978,5.1978,0,0,1,4.0889,1.6241,6.5829,6.5829,0,0,1,1.5371,4.32l.0283.8994a9.5638,9.5638,0,0,1-.7832,4.48,7.13,7.13,0,0,1-2.4932,2.9,11.9017,11.9017,0,0,1-3.8134,1.624A24.7083,24.7083,0,0,1,127.5442,91.7322Z"/><path class="cls-2" d="M142.45,91.4422l2.1172-11.252-2.2617-4.959h2.7549l2.03,5.0743-1.9726,11.1367Zm5.5684.0576.2607-2.0586a6.3477,6.3477,0,0,0,3.77-.1162,3.8066,3.8066,0,0,0,2.0586-2.2471,10.9731,10.9731,0,0,0,.58-4.1914,9.2081,9.2081,0,0,0-.5508-3.3779,3.6734,3.6734,0,0,0-1.3926-1.77,3.7319,3.7319,0,0,0-2-.5362,3.5594,3.5594,0,0,0-1.8711.4639,3.4759,3.4759,0,0,0-1.2187,1.2324,5.2767,5.2767,0,0,0-.623,1.6963l-.7247-1.334a5.312,5.312,0,0,1,1.8848-3.2041,4.9366,4.9366,0,0,1,2.9873-1,6.5774,6.5774,0,0,1,2.3916.42,4.8045,4.8045,0,0,1,1.9,1.3487,6.5964,6.5964,0,0,1,1.2754,2.4218,12.9457,12.9457,0,0,1,.4932,3.6387,11.4876,11.4876,0,0,1-.9854,5.4522,5.8855,5.8855,0,0,1-3.1621,2.9726A8.7485,8.7485,0,0,1,148.0188,91.5Z"/><path class="cls-2" d="M165.302,91.8767l-.2608-1.8847a4.2775,4.2775,0,0,0,1.7979-.5078,2.0362,2.0362,0,0,0,.8848-1.1016,5.4129,5.4129,0,0,0,.2461-1.7549V75.2312h7.4531a5.7743,5.7743,0,0,1,2.5527.5362A3.8239,3.8239,0,0,1,179.7,77.493a6.8267,6.8267,0,0,1,.6231,3.1611V91.4422h-2.668V80.5379a3.3319,3.3319,0,0,0-.7676-2.5088,2.9765,2.9765,0,0,0-2.1035-.71h-4.1465v9.0186a6.8338,6.8338,0,0,1-.5644,2.9873,3.8487,3.8487,0,0,1-1.74,1.7685A8.2934,8.2934,0,0,1,165.302,91.8767Z"/><path class="cls-2" d="M184.2981,91.4422V78.6238l-.3789-3.3926h2.6679l.3789,3.3926V91.4422Z"/><path class="cls-2" d="M190.2121,91.4422V89.3543h4.8731V79.9871a2.8889,2.8889,0,0,0-.5508-1.9863,2.5593,2.5593,0,0,0-1.5664-.74l-1.9727-.3183.377-2.03,2.7559.4063a4.0543,4.0543,0,0,1,2.6816,1.4355,4.9269,4.9269,0,0,1,.9434,3.1748V91.4422Z"/><path class="cls-2" d="M201.7844,91.4422V78.6238l-.3789-3.3926h2.668l.3789,3.3926V91.4422Z"/><path class="cls-2" d="M207.96,91.4422l2.1172-11.252-2.2617-4.959H210.57l2.0312,5.0743-1.9726,11.1367Zm5.5683.0576.26-2.0586a6.3521,6.3521,0,0,0,3.7715-.1162,3.8126,3.8126,0,0,0,2.0586-2.2471,11.0519,11.0519,0,0,0,.58-4.1914,9.2123,9.2123,0,0,0-.5508-3.3779,3.6849,3.6849,0,0,0-1.3926-1.77,3.7388,3.7388,0,0,0-2.0019-.5362,3.5569,3.5569,0,0,0-1.8692.4639,3.4507,3.4507,0,0,0-1.2187,1.2324,5.2535,5.2535,0,0,0-.6231,1.6963l-.7246-1.334a5.3026,5.3026,0,0,1,1.8848-3.2041,4.9359,4.9359,0,0,1,2.9863-1,6.579,6.579,0,0,1,2.3926.42,4.8256,4.8256,0,0,1,1.9,1.3487,6.6263,6.6263,0,0,1,1.2754,2.4218,13.0188,13.0188,0,0,1,.4921,3.6387,11.4773,11.4773,0,0,1-.9843,5.4522,5.8892,5.8892,0,0,1-3.1621,2.9726A8.75,8.75,0,0,1,213.5285,91.5Z"/><path class="cls-2" d="M225.0129,91.8767l-.2617-1.8847a4.2779,4.2779,0,0,0,1.7988-.5078,2.0407,2.0407,0,0,0,.8828-1.1016,5.4059,5.4059,0,0,0,.2481-1.7549V75.2312h7.4531a5.7659,5.7659,0,0,1,2.5508.5362,3.8284,3.8284,0,0,1,1.7266,1.7256,6.8524,6.8524,0,0,1,.623,3.1611V91.4422h-2.668V80.5379a3.3236,3.3236,0,0,0-.7695-2.5088,2.9748,2.9748,0,0,0-2.1016-.71h-4.1464v9.0186a6.8321,6.8321,0,0,1-.5664,2.9873,3.8487,3.8487,0,0,1-1.74,1.7685A8.2881,8.2881,0,0,1,225.0129,91.8767Z"/></g></g></svg>