<svg xmlns="http://www.w3.org/2000/svg" width="350.7016" height="165.141" viewBox="0 0 350.7016 165.141"><defs><style>.cls-1{fill:#00a0ca;stroke:#383838;stroke-miterlimit:10;stroke-width:3px;opacity:0.9;}.cls-2{fill:#fff;}</style></defs><title>Asset 11sadna_btn</title><g id="Layer_2" data-name="Layer 2"><g id="Layer_1-2" data-name="Layer 1"><path class="cls-1" d="M344.9409,34.77c-.5975-9.1344-3.4973-18.1669-5.4664-27.2267-.9435-4.3394-3.835-6.1531-9.3572-5.9768-11.3193.3625-22.6668.0153-34.0008.1238C213.2073,2.4882,130.2147-.75,47.4146,5.1015c-13.0163.92-25.9035,3.2156-38.83,4.9844-5.0595.6922-7.3406,2.9911-7.062,7.8069,1.56,26.9946,2.378,81.6833,4.3067,108.6571.7445,10.407,3.686,20.7056,5.7379,31.0381.8645,4.3558,3.6847,6.0348,9.2436,6.0064,41.5608-.21,83.1235-.115,124.6857-.1139,27.2705,0,54.5526.4326,81.8071-.1227,27.225-.5542,54.452-1.74,81.6179-3.3756,11.5246-.6932,22.9209-3.1269,34.3249-4.9965,4.1507-.68,6.1506-2.8848,5.94-6.9362C347.7027,119.5118,346.8073,63.2886,344.9409,34.77Z"/><path class="cls-2" d="M45.01,78.4324l-.5225-4.9009L44.43,70.7767h2.668l-.0869,2.7548-.4932,4.9009Zm5.249,0-.5225-4.9009-.0576-2.7548h2.668L52.26,73.5315l-.4932,4.9009Z"/><path class="cls-2" d="M56.8424,96.5862V77.9685l-.3769-3.393h2.6679l.377,3.393V96.5862Z"/><path class="cls-2" d="M63.57,90.7864V77.9685l-.3769-3.393h2.668l.3769,3.393V90.7864Z"/><path class="cls-2" d="M69.3405,90.7864V88.6985h4.0019a4.7781,4.7781,0,0,0,2.48-.58,3.5181,3.5181,0,0,0,1.45-1.7255,7.1715,7.1715,0,0,0,.4785-2.77V81.7386a7.0657,7.0657,0,0,0-.4785-2.7554,3.6071,3.6071,0,0,0-1.45-1.7251,4.6892,4.6892,0,0,0-2.48-.5947H69.3405V74.5755h4.6113a6.9483,6.9483,0,0,1,3.5381.8408,5.2935,5.2935,0,0,1,2.1894,2.4795,9.5808,9.5808,0,0,1,.7393,3.9585v1.6533a9.5543,9.5543,0,0,1-.7393,3.9727A5.2988,5.2988,0,0,1,77.49,89.9456a6.9483,6.9483,0,0,1-3.5381.8408Z"/><path class="cls-2" d="M83.2321,90.7864V88.6985h4.872V79.3313a2.8887,2.8887,0,0,0-.5517-1.9863,2.548,2.548,0,0,0-1.5655-.74l-1.9716-.3189.3769-2.03,2.7549.4058A4.0564,4.0564,0,0,1,89.83,76.0979a4.934,4.934,0,0,1,.9424,3.1753V90.7864Z"/><path class="cls-2" d="M94.3092,90.7864V82.9275l.377-1.9428h2.291v9.8017Zm9.89,0V79.8826a3.2908,3.2908,0,0,0-.7832-2.5088,2.9889,2.9889,0,0,0-2.0879-.71h-6.96V74.5755h7.5977a5.7573,5.7573,0,0,1,2.5517.5366,3.82,3.82,0,0,1,1.7256,1.7251,6.8265,6.8265,0,0,1,.624,3.1611V90.7864Z"/><path class="cls-2" d="M123.6862,90.7864V79.8826a3.2908,3.2908,0,0,0-.7832-2.5088,2.9889,2.9889,0,0,0-2.0879-.71H115.566V74.5755h5.8868a5.7573,5.7573,0,0,1,2.5517.5366,3.8247,3.8247,0,0,1,1.7256,1.7251,6.8265,6.8265,0,0,1,.624,3.1611V90.7864Z"/><path class="cls-2" d="M137.8668,90.7864V79.8826a3.2865,3.2865,0,0,0-.7832-2.5088,2.9872,2.9872,0,0,0-2.0879-.71H129.66V74.5755h5.9746a5.7638,5.7638,0,0,1,2.5518.5366,3.825,3.825,0,0,1,1.7255,1.7251,6.8388,6.8388,0,0,1,.6231,3.1611V90.7864Zm-8.207,0V88.6985h12.9053v2.0879Z"/><path class="cls-2" d="M152.2223,90.7864v-10.73a8.0025,8.0025,0,0,1,.2168-1.9575,4.822,4.822,0,0,1,.5947-1.4355h-7.9746V74.5755h12.6729v2.0879h-2.1748a4.7049,4.7049,0,0,0-.5372,1.6675,12.6719,12.6719,0,0,0-.13,1.7255v10.73Z"/><path class="cls-2" d="M160.8629,90.7864V82.9275l.377-1.9428h2.291v9.8017Zm9.89,0V79.8826a3.2908,3.2908,0,0,0-.7832-2.5088,2.9889,2.9889,0,0,0-2.0879-.71h-6.96V74.5755h7.5977a5.757,5.757,0,0,1,2.5517.5366,3.82,3.82,0,0,1,1.7256,1.7251,6.8265,6.8265,0,0,1,.624,3.1611V90.7864Z"/><path class="cls-2" d="M178.1178,78.4324l-.5215-4.9009-.0586-2.7548h2.668l-.0869,2.7548-.4922,4.9009Zm5.249,0-.5215-4.9009-.0586-2.7548h2.668l-.0869,2.7548-.4922,4.9009Z"/><path class="cls-2" d="M194.4742,91.2215l-.2617-1.8853a4.277,4.277,0,0,0,1.7989-.5073,2.0369,2.0369,0,0,0,.8837-1.1021,5.4062,5.4062,0,0,0,.2471-1.7543V74.5755h7.4531a5.7635,5.7635,0,0,1,2.5518.5366,3.8247,3.8247,0,0,1,1.7256,1.7251,6.84,6.84,0,0,1,.623,3.1611V90.7864h-2.6679V79.8826a3.3263,3.3263,0,0,0-.7686-2.5088,2.9775,2.9775,0,0,0-2.1025-.71H199.81v9.019a6.8291,6.8291,0,0,1-.5654,2.9868,3.8523,3.8523,0,0,1-1.74,1.7691A8.2952,8.2952,0,0,1,194.4742,91.2215Z"/><path class="cls-2" d="M226.9537,90.7864h-2.8711l-6.3505-9.57-2.9873,9.57H212.193l3.1894-9.9761.7833-1.9721-2.6387-4.2627h2.6963l2.5234,4.0019,2.5811,3.857.6963-2.4649,1.5937-5.394H226.2l-3.3066,10.1787Z"/><path class="cls-2" d="M234.609,91.2215l-.2607-1.8853a4.2764,4.2764,0,0,0,1.7978-.5073,2.0375,2.0375,0,0,0,.8838-1.1021,5.4062,5.4062,0,0,0,.2471-1.7543V74.5755H244.73a5.7638,5.7638,0,0,1,2.5518.5366,3.825,3.825,0,0,1,1.7255,1.7251,6.8388,6.8388,0,0,1,.6231,3.1611V90.7864h-2.668V79.8826a3.3263,3.3263,0,0,0-.7685-2.5088,2.9759,2.9759,0,0,0-2.1026-.71h-4.1465v9.019a6.8277,6.8277,0,0,1-.5654,2.9868,3.8516,3.8516,0,0,1-1.74,1.7691A8.29,8.29,0,0,1,234.609,91.2215Z"/><path class="cls-2" d="M253.6041,90.7864V77.9685l-.3779-3.393h2.668l.3779,3.393V90.7864Z"/><path class="cls-2" d="M261.608,91.0765l-2.0586-16.501h2.5518l1.7109,14.21a12.708,12.708,0,0,0,3.9-.812,7.4267,7.4267,0,0,0,2.77-1.8706,7.595,7.595,0,0,0,1.6386-2.9721,13.6738,13.6738,0,0,0,.5078-4.1182l-.0293-4.437h2.668l.0293,4.3208a13.6865,13.6865,0,0,1-1.4648,6.7861,9.319,9.319,0,0,1-4.5381,4.0454A19.05,19.05,0,0,1,261.608,91.0765Zm1.2471-6.3223-.6377-1.8267a8.4667,8.4667,0,0,0,2.3633-1.4067,4.3167,4.3167,0,0,0,1.2324-1.9863,10.8323,10.8323,0,0,0,.377-3.1319l.0293-1.769h2.5517l-.0293,1.7109a11.5037,11.5037,0,0,1-.5937,3.7407,6.4065,6.4065,0,0,1-1.8418,2.6827A11.9717,11.9717,0,0,1,262.8551,84.7542Z"/><path class="cls-2" d="M277.441,91.6853l-.3769-2.1167,5.5107-1.0444a7.9461,7.9461,0,0,0,2.6817-.957,4.4352,4.4352,0,0,0,1.5957-1.6817,8.11,8.11,0,0,0,.8115-2.581,27.322,27.322,0,0,0,.29-3.6978q.0439-2.16.044-5.0312h2.668q0,3.0739-.1163,5.4663a24.6007,24.6007,0,0,1-.5224,4.19,8.8607,8.8607,0,0,1-1.2754,3.0742,6.7622,6.7622,0,0,1-2.3633,2.1026,12.7589,12.7589,0,0,1-3.7851,1.2612Zm4.6983-2.8711-3.7119-14.2387h2.6679l3.625,14.2387Z"/><path class="cls-2" d="M293.275,76.6634v-6.67h2.4356v6.67Zm3.3643,14.123,5.51-14.123H293.275V74.5755h11.542v2.2617l-5.51,13.9492Z"/></g></g></svg>