<svg xmlns="http://www.w3.org/2000/svg" width="350.7016" height="165.141" viewBox="0 0 350.7016 165.141"><defs><style>.cls-1{fill:#00a0ca;stroke:#383838;stroke-miterlimit:10;stroke-width:3px;opacity:0.9;}.cls-2{fill:#fff;}</style></defs><title>Asset 13sadna_btn</title><g id="Layer_2" data-name="Layer 2"><g id="Layer_1-2" data-name="Layer 1"><path class="cls-1" d="M344.9409,34.77c-.5975-9.1344-3.4973-18.1669-5.4664-27.2267-.9435-4.3394-3.835-6.1531-9.3572-5.9768-11.3193.3625-22.6668.0153-34.0008.1238C213.2073,2.4882,130.2147-.75,47.4146,5.1015c-13.0163.92-25.9035,3.2156-38.83,4.9844-5.0595.6922-7.3406,2.9911-7.062,7.8069,1.56,26.9946,2.378,81.6833,4.3067,108.6571.7445,10.407,3.686,20.7056,5.7379,31.0381.8645,4.3558,3.6847,6.0348,9.2436,6.0064,41.5608-.21,83.1235-.115,124.6857-.1139,27.2705,0,54.5526.4326,81.8071-.1227,27.225-.5542,54.452-1.74,81.6179-3.3756,11.5246-.6932,22.9209-3.1269,34.3249-4.9965,4.1507-.68,6.1506-2.8848,5.94-6.9362C347.7027,119.5118,346.8073,63.2886,344.9409,34.77Z"/><path class="cls-2" d="M89.78,74.513V63.783a7.9992,7.9992,0,0,1,.2178-1.9575,4.7734,4.7734,0,0,1,.5947-1.4356H82.617V58.302H95.2909V60.39H93.1151a4.7069,4.7069,0,0,0-.5362,1.6675,12.6836,12.6836,0,0,0-.1308,1.7256v10.73Z"/><path class="cls-2" d="M108.7752,74.513V63.9568q0-3.5669-2.8711-3.5669H98.5379V58.302h8.0039a5.22,5.22,0,0,1,2.61.6236,4.09,4.09,0,0,1,1.6963,1.8994,7.7079,7.7079,0,0,1,.5947,3.248v10.44Zm-10.2373,0V59.3172h2.668V74.513Z"/><path class="cls-2" d="M115.3582,74.513V72.4251h4.9873a5.9443,5.9443,0,0,0,1.8565-.2754,3.8125,3.8125,0,0,0,1.4639-.87,3.9537,3.9537,0,0,0,.9716-1.5659,7.1364,7.1364,0,0,0,.3477-2.3926v-1.856a7.9484,7.9484,0,0,0-.42-2.7553,3.4883,3.4883,0,0,0-1.291-1.7251,3.7681,3.7681,0,0,0-2.1749-.5948h-2.8125l-.7246,3.045a3.68,3.68,0,0,0,.087,2.3491,2.63,2.63,0,0,0,1.9716,1.1308l-.4931,1.7691a5.2961,5.2961,0,0,1-2.7549-.8555,3.11,3.11,0,0,1-1.2178-1.8706,6.829,6.829,0,0,1,.0283-2.7256l1.1319-4.93h5.3066a5.9912,5.9912,0,0,1,3.2334.8409,5.42,5.42,0,0,1,2.0732,2.4506,9.62,9.62,0,0,1,.7256,3.9585v1.6529a9.7676,9.7676,0,0,1-.5078,3.3349,5.6358,5.6358,0,0,1-3.625,3.5674,8.4419,8.4419,0,0,1-2.6533.4058Z"/><path class="cls-2" d="M136.035,60.39V53.72h2.4355v6.67Zm3.3643,14.1231,5.51-14.1231h-8.874V58.302h11.542v2.2618l-5.51,13.9492Z"/><path class="cls-2" d="M149.8377,75.4119l-.3769-2.1167,5.5107-1.0444a7.9461,7.9461,0,0,0,2.6817-.9571,4.4349,4.4349,0,0,0,1.5957-1.6816,8.11,8.11,0,0,0,.8115-2.5811,27.338,27.338,0,0,0,.29-3.6977q.044-2.16.044-5.0313h2.6679q0,3.0741-.1162,5.4664a24.6021,24.6021,0,0,1-.5224,4.19,8.8615,8.8615,0,0,1-1.2754,3.0742,6.761,6.761,0,0,1-2.3633,2.1025A12.7613,12.7613,0,0,1,155,74.3968Zm4.6983-2.8711L150.8241,58.302h2.6679l3.625,14.2388Z"/><path class="cls-2" d="M172.283,79.5008l-.6084-1.479a4.7451,4.7451,0,0,0,1.9717-1.479,3.4366,3.4366,0,0,0,.6963-2.1167l-.2617-2.1753L175.27,74.02a1.1441,1.1441,0,0,1-.5507.3916,2.1834,2.1834,0,0,1-.667.1016,1.9417,1.9417,0,0,1-1.2617-.4351,1.7355,1.7355,0,0,1,.0146-2.5229,1.9212,1.9212,0,0,1,1.2754-.4639,1.7756,1.7756,0,0,1,1.5517.7686,3.678,3.678,0,0,1,.5372,2.1313,5.55,5.55,0,0,1-1.03,3.32A6.4332,6.4332,0,0,1,172.283,79.5008Z"/><path class="cls-2" d="M186.0584,80.3128,178.8953,58.302h2.5811l7.1914,22.0108Zm-.9277-8.0039-1.5957-2.001,4.8437-12.0059h2.5518Z"/><path class="cls-2" d="M193.1912,74.513l2.1172-11.252-2.2617-4.959h2.7549l2.03,5.0747L195.8592,74.513Zm5.5684.0581.2607-2.0591a6.3485,6.3485,0,0,0,3.7706-.1162,3.8066,3.8066,0,0,0,2.0585-2.2471,11.0076,11.0076,0,0,0,.58-4.1909,9.209,9.209,0,0,0-.5508-3.3784,3.6765,3.6765,0,0,0-1.3925-1.7691,3.7365,3.7365,0,0,0-2.001-.5361,3.5555,3.5555,0,0,0-1.87.4639,3.4515,3.4515,0,0,0-1.2178,1.2324,5.2549,5.2549,0,0,0-.624,1.6963l-.7246-1.334a5.3072,5.3072,0,0,1,1.8847-3.2041,4.9372,4.9372,0,0,1,2.9873-1.0005,6.5863,6.5863,0,0,1,2.3926.42,4.8141,4.8141,0,0,1,1.8994,1.3482,6.6154,6.6154,0,0,1,1.2754,2.4218,12.9819,12.9819,0,0,1,.4932,3.6392,11.4754,11.4754,0,0,1-.9854,5.4522,5.8907,5.8907,0,0,1-3.1611,2.9726A8.7525,8.7525,0,0,1,198.76,74.5711Z"/><path class="cls-2" d="M211.52,74.513V61.6951l-.3779-3.3931h2.668l.3779,3.3931V74.513Z"/><path class="cls-2" d="M231.7323,74.513h-2.8711l-6.3506-9.57-2.9873,9.57h-2.5518l3.19-9.9761.7832-1.9722-2.6387-4.2627h2.6973l2.5224,4.002,2.5811,3.8569.6963-2.4648,1.5947-5.3941h2.5811l-3.3057,10.1788Z"/><path class="cls-2" d="M239.6785,60.39V53.72h2.4356v6.67Zm3.3643,14.1231,5.51-14.1231h-8.8741V58.302h11.542v2.2618l-5.51,13.9492Z"/><path class="cls-2" d="M253.4813,75.4119l-.377-2.1167,5.5108-1.0444a7.9455,7.9455,0,0,0,2.6816-.9571,4.4342,4.4342,0,0,0,1.5957-1.6816,8.1053,8.1053,0,0,0,.8115-2.5811,27.32,27.32,0,0,0,.29-3.6977q.0439-2.16.0439-5.0313h2.668q0,3.0741-.1162,5.4664a24.6114,24.6114,0,0,1-.5225,4.19,8.8615,8.8615,0,0,1-1.2754,3.0742,6.7592,6.7592,0,0,1-2.3633,2.1025,12.7606,12.7606,0,0,1-3.7851,1.2613Zm4.6982-2.8711L254.4676,58.302h2.668l3.625,14.2388Z"/><path class="cls-2" d="M108.0213,107.513V91.302h2.668v16.211Zm.6377,0v-2.0879h11.4551l-.1738,2.0879Zm9.6865,0V96.6092A3.33,3.33,0,0,0,117.577,94.1a2.9788,2.9788,0,0,0-2.1026-.71h-5.8291V91.302h6.4668a5.7577,5.7577,0,0,1,2.5518.5367,3.82,3.82,0,0,1,1.7256,1.7251,6.826,6.826,0,0,1,.624,3.1611V107.513Z"/><path class="cls-2" d="M124.5223,107.513V99.6541l.377-1.9429h2.291v9.8018Zm9.8887,0V96.6092a3.2867,3.2867,0,0,0-.7832-2.5088,2.9868,2.9868,0,0,0-2.0879-.71h-6.96V91.302h7.5977a5.7644,5.7644,0,0,1,2.5527.5367,3.8247,3.8247,0,0,1,1.7256,1.7251,6.84,6.84,0,0,1,.623,3.1611V107.513Z"/><path class="cls-2" d="M141.0233,101.4231v-6.728l-.378-3.3931h2.668l.3779,3.3931V99.074l-.0293,1.8272Z"/><path class="cls-2" d="M146.9383,107.513v-2.0879H151.81V96.0579a2.8889,2.8889,0,0,0-.5508-1.9863,2.5538,2.5538,0,0,0-1.5664-.74l-1.9717-.3188.377-2.03,2.7549.4058a4.0567,4.0567,0,0,1,2.6826,1.4355A4.934,4.934,0,0,1,154.4784,96V107.513Z"/><path class="cls-2" d="M158.51,101.4231v-6.728l-.3779-3.3931H160.8l.378,3.3931V99.074l-.0293,1.8272Z"/><path class="cls-2" d="M172.6893,107.513V96.6092a3.2907,3.2907,0,0,0-.7822-2.5088,2.9911,2.9911,0,0,0-2.0889-.71h-5.3359V91.302h5.9746a5.763,5.763,0,0,1,2.5517.5367,3.8247,3.8247,0,0,1,1.7256,1.7251,6.8382,6.8382,0,0,1,.6231,3.1611V107.513Zm-8.207,0v-2.0879h12.9052v2.0879Z"/><path class="cls-2" d="M181.8826,107.803l-2.0585-16.501h2.5517l1.711,14.21a12.7139,12.7139,0,0,0,3.9-.812,7.4279,7.4279,0,0,0,2.77-1.8706,7.5962,7.5962,0,0,0,1.6386-2.9722,13.6761,13.6761,0,0,0,.5079-4.1181l-.0293-4.4371h2.6679l.0293,4.3208a13.6872,13.6872,0,0,1-1.4648,6.7862,9.32,9.32,0,0,1-4.5381,4.0454A19.05,19.05,0,0,1,181.8826,107.803Zm1.2471-6.3222-.6377-1.8267a8.4691,8.4691,0,0,0,2.3633-1.4067,4.3168,4.3168,0,0,0,1.2324-1.9864,10.8316,10.8316,0,0,0,.377-3.1318l.0293-1.7691h2.5517l-.0293,1.711a11.5037,11.5037,0,0,1-.5937,3.7407,6.4056,6.4056,0,0,1-1.8418,2.6826A11.97,11.97,0,0,1,183.13,101.4808Z"/><path class="cls-2" d="M204.5028,107.513V99.6541l.3769-1.9429h2.291v9.8018Zm9.8886,0V96.6092a3.2863,3.2863,0,0,0-.7832-2.5088,2.9865,2.9865,0,0,0-2.0879-.71h-6.96V91.302h7.5976a5.7652,5.7652,0,0,1,2.5528.5367,3.8257,3.8257,0,0,1,1.7256,1.7251,6.84,6.84,0,0,1,.623,3.1611V107.513Z"/><path class="cls-2" d="M220.452,107.513l2.1172-11.252-2.2617-4.959h2.7548l2.03,5.0747L223.12,107.513Zm5.5683.0581.2608-2.0591a6.3482,6.3482,0,0,0,3.77-.1162,3.8068,3.8068,0,0,0,2.0586-2.2471,11.01,11.01,0,0,0,.58-4.1909,9.2133,9.2133,0,0,0-.5508-3.3784,3.6761,3.6761,0,0,0-1.3926-1.7691,3.7365,3.7365,0,0,0-2.001-.5361,3.5557,3.5557,0,0,0-1.87.4639,3.4523,3.4523,0,0,0-1.2178,1.2324,5.2549,5.2549,0,0,0-.624,1.6963l-.7246-1.334a5.3073,5.3073,0,0,1,1.8848-3.2041,4.9372,4.9372,0,0,1,2.9873-1,6.5867,6.5867,0,0,1,2.3926.42,4.8141,4.8141,0,0,1,1.8994,1.3482,6.6154,6.6154,0,0,1,1.2754,2.4218,12.9859,12.9859,0,0,1,.4931,3.6392,11.4767,11.4767,0,0,1-.9853,5.4522,5.8909,5.8909,0,0,1-3.1612,2.9726A8.7524,8.7524,0,0,1,226.02,107.5711Z"/><path class="cls-2" d="M238.78,107.513V94.6951l-.3779-3.3931H241.07l.378,3.3931V107.513Z"/></g></g></svg>