<svg xmlns="http://www.w3.org/2000/svg" width="350.7016" height="165.141" viewBox="0 0 350.7016 165.141"><defs><style>.cls-1{fill:#00a0ca;stroke:#383838;stroke-miterlimit:10;stroke-width:3px;opacity:0.9;}.cls-2{fill:#fff;}</style></defs><title>Asset 9sadna_btn</title><g id="Layer_2" data-name="Layer 2"><g id="Layer_1-2" data-name="Layer 1"><path class="cls-1" d="M344.9409,34.77c-.5975-9.1344-3.4973-18.1669-5.4664-27.2267-.9435-4.3394-3.835-6.1531-9.3572-5.9768-11.3193.3625-22.6668.0153-34.0008.1238C213.2073,2.4882,130.2147-.75,47.4146,5.1015c-13.0163.92-25.9035,3.2156-38.83,4.9844-5.0595.6922-7.3406,2.9911-7.062,7.8069,1.56,26.9946,2.378,81.6833,4.3067,108.6571.7445,10.407,3.686,20.7056,5.7379,31.0381.8645,4.3558,3.6847,6.0348,9.2436,6.0064,41.5608-.21,83.1235-.115,124.6857-.1139,27.2705,0,54.5526.4326,81.8071-.1227,27.225-.5542,54.452-1.74,81.6179-3.3756,11.5246-.6932,22.9209-3.1269,34.3249-4.9965,4.1507-.68,6.1506-2.8848,5.94-6.9362C347.7027,119.5118,346.8073,63.2886,344.9409,34.77Z"/><path class="cls-2" d="M101.7785,69.3892v-6.728l-.3769-3.3931h2.668l.3769,3.3931V67.04l-.0293,1.8272Z"/><path class="cls-2" d="M107.9563,75.4791l2.1162-11.252-2.2617-4.959h2.7549l2.0293,5.0747-1.9708,11.1363Zm5.5674.0581.2607-2.0591a6.3443,6.3443,0,0,0,3.7695-.1162,3.8023,3.8023,0,0,0,2.06-2.2471,11.01,11.01,0,0,0,.58-4.1909,9.2087,9.2087,0,0,0-.5508-3.3784,3.6742,3.6742,0,0,0-1.3916-1.7691,3.74,3.74,0,0,0-2.002-.5361,3.5582,3.5582,0,0,0-1.87.4639,3.4512,3.4512,0,0,0-1.2177,1.2324,5.2319,5.2319,0,0,0-.6241,1.6963l-.7246-1.334a5.307,5.307,0,0,1,1.8848-3.2041,4.9393,4.9393,0,0,1,2.9873-1.0005,6.5846,6.5846,0,0,1,2.3926.42,4.8141,4.8141,0,0,1,1.8994,1.3482,6.6314,6.6314,0,0,1,1.2764,2.4218,13.0257,13.0257,0,0,1,.4921,3.6392,11.4633,11.4633,0,0,1-.9863,5.4521,5.8853,5.8853,0,0,1-3.16,2.9727A8.7525,8.7525,0,0,1,113.5237,75.5372Z"/><path class="cls-2" d="M126.2834,69.3892v-6.728l-.3769-3.3931h2.6679l.377,3.3931V67.04l-.0283,1.8272Z"/><path class="cls-2" d="M132.1985,75.4791V73.3912h4.873V64.024a2.8891,2.8891,0,0,0-.5517-1.9863,2.5513,2.5513,0,0,0-1.5655-.74l-1.9726-.3188.3769-2.03,2.7559.4057a4.0525,4.0525,0,0,1,2.6816,1.4356,4.9284,4.9284,0,0,1,.9434,3.1753V75.4791Z"/><path class="cls-2" d="M143.6828,75.4791V73.3912h4.9883a5.9383,5.9383,0,0,0,1.8555-.2754,3.8152,3.8152,0,0,0,1.4648-.87,3.9512,3.9512,0,0,0,.9707-1.5659,7.135,7.135,0,0,0,.3487-2.3926v-1.856a7.9475,7.9475,0,0,0-.4209-2.7554,3.4867,3.4867,0,0,0-1.29-1.7251,3.7724,3.7724,0,0,0-2.1748-.5947h-2.8134l-.7247,3.0449a3.6808,3.6808,0,0,0,.087,2.3492,2.63,2.63,0,0,0,1.9716,1.1308l-.4931,1.7691a5.2894,5.2894,0,0,1-2.7539-.8555,3.1073,3.1073,0,0,1-1.2188-1.8706,6.8308,6.8308,0,0,1,.0293-2.7256l1.1309-4.93h5.3066a5.9924,5.9924,0,0,1,3.2344.8409,5.4132,5.4132,0,0,1,2.0723,2.4506,9.62,9.62,0,0,1,.7255,3.9585V68.171a9.769,9.769,0,0,1-.5068,3.3349,5.6416,5.6416,0,0,1-3.625,3.5674,8.4442,8.4442,0,0,1-2.6543.4058Z"/><path class="cls-2" d="M159.052,75.4791V67.62l.3769-1.9429H161.72v9.8018Zm9.8887,0V64.5753a3.2828,3.2828,0,0,0-.7832-2.5088,2.9843,2.9843,0,0,0-2.087-.71h-6.96V59.2681h7.5976a5.7669,5.7669,0,0,1,2.5528.5367,3.8232,3.8232,0,0,1,1.7246,1.7251,6.8268,6.8268,0,0,1,.623,3.1611V75.4791Z"/><path class="cls-2" d="M181.3528,81.2789V62.6612l-.377-3.3931h2.668l.3769,3.3931V81.2789Z"/><path class="cls-2" d="M187.9934,75.4791V73.3912h4.9883a5.9505,5.9505,0,0,0,1.8574-.2754,3.8079,3.8079,0,0,0,1.4629-.87,3.9665,3.9665,0,0,0,.9726-1.5659,7.1369,7.1369,0,0,0,.3477-2.3926v-1.856a7.97,7.97,0,0,0-.42-2.7554,3.4945,3.4945,0,0,0-1.291-1.7251,3.7718,3.7718,0,0,0-2.1758-.5947h-2.8125l-.7246,3.0449a3.7023,3.7023,0,0,0,.0859,2.3492,2.636,2.636,0,0,0,1.9727,1.1308l-.4922,1.7691a5.3035,5.3035,0,0,1-2.7559-.8555,3.1044,3.1044,0,0,1-1.2168-1.8706,6.789,6.789,0,0,1,.0274-2.7256l1.1308-4.93h5.3086a5.9853,5.9853,0,0,1,3.2324.8409,5.4279,5.4279,0,0,1,2.0743,2.4506,9.6372,9.6372,0,0,1,.7246,3.9585V68.171a9.77,9.77,0,0,1-.5078,3.3349,5.6307,5.6307,0,0,1-3.625,3.5674,8.4412,8.4412,0,0,1-2.6524.4058Z"/><path class="cls-2" d="M202.7844,75.4791V73.3912h11.1348l.7832,2.0879Zm10.0625,0-9.541-16.211h2.7266l9.541,16.211Zm-1.5957-6.67L209.7727,66.46l3.0449-7.1919h2.668Z"/><path class="cls-2" d="M218.56,75.4791l2.1172-11.252-2.2617-4.959h2.7539L223.2,64.3428l-1.9726,11.1363Zm5.5684.0581.26-2.0591a6.3521,6.3521,0,0,0,3.7715-.1162,3.81,3.81,0,0,0,2.0586-2.2471,11.0491,11.0491,0,0,0,.58-4.1909,9.2108,9.2108,0,0,0-.5508-3.3784,3.6814,3.6814,0,0,0-1.3926-1.7691,3.74,3.74,0,0,0-2.0019-.5361,3.5522,3.5522,0,0,0-1.8692.4639,3.4467,3.4467,0,0,0-1.2187,1.2324,5.2535,5.2535,0,0,0-.6231,1.6963l-.7246-1.334a5.3023,5.3023,0,0,1,1.8848-3.2041,4.9364,4.9364,0,0,1,2.9863-1.0005,6.5769,6.5769,0,0,1,2.3926.42,4.8244,4.8244,0,0,1,1.9,1.3482,6.63,6.63,0,0,1,1.2754,2.4218,13.0254,13.0254,0,0,1,.4922,3.6392,11.4766,11.4766,0,0,1-.9844,5.4521,5.8923,5.8923,0,0,1-3.1621,2.9727A8.75,8.75,0,0,1,224.1282,75.5372Z"/><path class="cls-2" d="M236.3938,75.4791V67.62l.3769-1.9429h2.291v9.8018Zm9.8887,0V64.5753a3.2824,3.2824,0,0,0-.7833-2.5088,2.9847,2.9847,0,0,0-2.0878-.71h-6.959V59.2681H244.05a5.7669,5.7669,0,0,1,2.5528.5367,3.8232,3.8232,0,0,1,1.7246,1.7251,6.8268,6.8268,0,0,1,.623,3.1611V75.4791Z"/><path class="cls-2" d="M98.3274,108.4791V100.62l.3769-1.9429h2.291v9.8018Zm9.8886,0V97.5753a3.2863,3.2863,0,0,0-.7832-2.5088,2.9849,2.9849,0,0,0-2.0878-.7105H98.386V92.2681h7.5976a5.7594,5.7594,0,0,1,2.5518.5367A3.82,3.82,0,0,1,110.261,94.53a6.8268,6.8268,0,0,1,.623,3.1611v10.7881Z"/><path class="cls-2" d="M124.6887,108.4791V97.9229q0-3.5668-2.8711-3.5669h-7.3662V92.2681h8.0039a5.22,5.22,0,0,1,2.61.6236,4.09,4.09,0,0,1,1.6962,1.8994,7.7219,7.7219,0,0,1,.5948,3.248v10.44Zm-10.2373,0V93.2833h2.668v15.1958Z"/><path class="cls-2" d="M131.3586,102.3892v-6.728l-.3769-3.3931H133.65l.377,3.3931V100.04l-.0293,1.8272Z"/><path class="cls-2" d="M137.5354,108.4791l2.1162-11.252-2.2617-4.959h2.7558l2.0293,5.0747-1.9716,11.1363Zm5.5674.0581.2617-2.0591a6.3444,6.3444,0,0,0,3.7695-.1162,3.8008,3.8008,0,0,0,2.0586-2.2471,10.9723,10.9723,0,0,0,.58-4.1909,9.2087,9.2087,0,0,0-.5508-3.3784,3.669,3.669,0,0,0-1.3916-1.7691,3.7365,3.7365,0,0,0-2.001-.5361,3.5594,3.5594,0,0,0-1.8711.4639,3.4674,3.4674,0,0,0-1.2177,1.2324,5.2784,5.2784,0,0,0-.6241,1.6963l-.7246-1.334a5.3117,5.3117,0,0,1,1.8848-3.2041,4.94,4.94,0,0,1,2.9883-1.0005,6.5791,6.5791,0,0,1,2.3916.42,4.8,4.8,0,0,1,1.8994,1.3482,6.6164,6.6164,0,0,1,1.2764,2.4218,12.9859,12.9859,0,0,1,.4931,3.6392,11.4876,11.4876,0,0,1-.9863,5.4521,5.8875,5.8875,0,0,1-3.1611,2.9727A8.7519,8.7519,0,0,1,143.1028,108.5372Z"/><path class="cls-2" d="M154.79,108.4791v-2.0879H165.925l.7832,2.0879Zm10.0625,0-9.5411-16.211h2.7256l9.5411,16.211Zm-1.5957-6.67L161.7785,99.46l3.045-7.1919h2.6679Z"/><path class="cls-2" d="M170.13,94.356v-6.67h2.4356v6.67Zm3.3652,14.1231,5.51-14.1231H170.13V92.2681h11.543V94.53l-5.51,13.9492Z"/><path class="cls-2" d="M196.925,92.2681a5.7521,5.7521,0,0,1,3.2051.8409,5.3,5.3,0,0,1,1.9727,2.4506,10.1849,10.1849,0,0,1,.6816,3.9585v14.7608h-2.668V99.4312a8.4631,8.4631,0,0,0-.3925-2.7554,3.4022,3.4022,0,0,0-1.2325-1.7251,3.6868,3.6868,0,0,0-2.1757-.5947h-2.8711l-.4922,2.523a8.136,8.136,0,0,0-.1309,1.7983,2.2544,2.2544,0,0,0,.4219,1.2759,1.8934,1.8934,0,0,0,1.1308.667l-.58,1.6821a4.9494,4.9494,0,0,1-1.9434-.5947,2.935,2.935,0,0,1-1.1308-1.16,3.7476,3.7476,0,0,1-.4063-1.6675,9.3124,9.3124,0,0,1,.2031-2.1167l.9571-4.4951Z"/><path class="cls-2" d="M206.845,108.4791V95.6612l-.379-3.3931h2.668l.3789,3.3931v12.8179Z"/><path class="cls-2" d="M212.759,108.4791v-2.0879h4.8731V97.024a2.8888,2.8888,0,0,0-.5508-1.9863,2.5591,2.5591,0,0,0-1.5664-.74l-1.9727-.3188.377-2.03,2.7558.4057a4.0548,4.0548,0,0,1,2.6817,1.4356,4.9284,4.9284,0,0,1,.9433,3.1753v11.5132Z"/><path class="cls-2" d="M223.7785,108.4791l2.1172-11.252-2.2617-4.959H226.39l2.0293,5.0747-1.9727,11.1363Zm5.5684.0581.2617-2.0591a6.3447,6.3447,0,0,0,3.77-.1162,3.8036,3.8036,0,0,0,2.0585-2.2471,10.97,10.97,0,0,0,.58-4.1909,9.2087,9.2087,0,0,0-.5508-3.3784,3.67,3.67,0,0,0-1.3925-1.7691,3.733,3.733,0,0,0-2-.5361,3.5592,3.5592,0,0,0-1.8711.4639,3.4568,3.4568,0,0,0-1.2168,1.2324,5.2564,5.2564,0,0,0-.625,1.6963l-.7246-1.334a5.3112,5.3112,0,0,1,1.8847-3.2041,4.9379,4.9379,0,0,1,2.9883-1.0005,6.5919,6.5919,0,0,1,2.3926.42A4.8039,4.8039,0,0,1,236.8,93.8629a6.6,6.6,0,0,1,1.2754,2.4218,12.946,12.946,0,0,1,.4942,3.6392,11.4742,11.4742,0,0,1-.9864,5.4521,5.8887,5.8887,0,0,1-3.16,2.9727A8.7554,8.7554,0,0,1,229.3469,108.5372Z"/><path class="cls-2" d="M241.15,108.4791v-2.0879h4.002a4.7829,4.7829,0,0,0,2.4805-.58,3.5171,3.5171,0,0,0,1.4492-1.7256,7.19,7.19,0,0,0,.4785-2.7695V99.4312a7.0844,7.0844,0,0,0-.4785-2.7554,3.6063,3.6063,0,0,0-1.4492-1.7251,4.6939,4.6939,0,0,0-2.4805-.5947H241.15V92.2681h4.6114a6.9412,6.9412,0,0,1,3.5371.8409,5.2885,5.2885,0,0,1,2.1894,2.4794,9.5645,9.5645,0,0,1,.74,3.9585V101.2a9.5369,9.5369,0,0,1-.74,3.9726,5.2935,5.2935,0,0,1-2.1894,2.4653,6.9412,6.9412,0,0,1-3.5371.8409Z"/></g></g></svg>