<svg xmlns="http://www.w3.org/2000/svg" width="350.7016" height="165.141" viewBox="0 0 350.7016 165.141"><defs><style>.cls-1{fill:#00a0ca;stroke:#383838;stroke-miterlimit:10;stroke-width:3px;opacity:0.9;}.cls-2{fill:#fff;}</style></defs><title>Asset 16sadna_btn</title><g id="Layer_2" data-name="Layer 2"><g id="Layer_1-2" data-name="Layer 1"><path class="cls-1" d="M344.9409,34.77c-.5975-9.1344-3.4973-18.1669-5.4664-27.2267-.9435-4.3394-3.835-6.1531-9.3572-5.9768-11.3193.3625-22.6668.0153-34.0008.1238C213.2073,2.4882,130.2147-.75,47.4146,5.1015c-13.0163.92-25.9035,3.2156-38.83,4.9844-5.0595.6922-7.3406,2.9911-7.062,7.8069,1.56,26.9946,2.378,81.6833,4.3067,108.6571.7445,10.407,3.686,20.7056,5.7379,31.0381.8645,4.3558,3.6847,6.0348,9.2436,6.0064,41.5608-.21,83.1235-.115,124.6857-.1139,27.2705,0,54.5526.4326,81.8071-.1227,27.225-.5542,54.452-1.74,81.6179-3.3756,11.5246-.6932,22.9209-3.1269,34.3249-4.9965,4.1507-.68,6.1506-2.8848,5.94-6.9362C347.7027,119.5118,346.8073,63.2886,344.9409,34.77Z"/><path class="cls-2" d="M75.2508,68.5346V66.6205h6.6709v1.9141Z"/><path class="cls-2" d="M89.7518,75.2914,89.49,73.4062a4.2784,4.2784,0,0,0,1.7988-.5073,2.0382,2.0382,0,0,0,.8838-1.1021,5.4069,5.4069,0,0,0,.2471-1.7544V58.6454h7.4531a5.763,5.763,0,0,1,2.5517.5367,3.8247,3.8247,0,0,1,1.7256,1.7251,6.8382,6.8382,0,0,1,.6231,3.1611V74.8564h-2.668V63.9526a3.3266,3.3266,0,0,0-.7685-2.5088,2.9776,2.9776,0,0,0-2.1026-.7105H95.0877v9.0191a6.8277,6.8277,0,0,1-.5654,2.9868,3.8519,3.8519,0,0,1-1.74,1.769A8.2938,8.2938,0,0,1,89.7518,75.2914Z"/><path class="cls-2" d="M108.7459,68.7665v-6.728l-.3769-3.3931h2.6679l.377,3.3931v4.3789l-.0283,1.8272Z"/><path class="cls-2" d="M113.7918,75.2914l-.2607-1.8852a4.2775,4.2775,0,0,0,1.7978-.5073,2.0439,2.0439,0,0,0,.8848-1.1021,5.409,5.409,0,0,0,.2461-1.7544V58.6454h7.4531a5.7638,5.7638,0,0,1,2.5518.5367,3.8247,3.8247,0,0,1,1.7256,1.7251,6.84,6.84,0,0,1,.623,3.1611V74.8564h-2.668V63.9526a3.3262,3.3262,0,0,0-.7685-2.5088,2.9758,2.9758,0,0,0-2.1025-.7105h-4.1465v9.0191a6.8276,6.8276,0,0,1-.5655,2.9868,3.8514,3.8514,0,0,1-1.74,1.769A8.2828,8.2828,0,0,1,113.7918,75.2914Z"/><path class="cls-2" d="M146.2713,74.8564H143.4l-6.3506-9.57-2.9873,9.57h-2.5517L134.7,64.88l.7832-1.9722-2.6386-4.2627h2.6972l2.5225,4.002,2.581,3.8569.6963-2.4648,1.5948-5.3941h2.581l-3.3056,10.1788Z"/><path class="cls-2" d="M148.3309,74.8564V72.7685h11.1357l.7832,2.0879Zm10.0625,0-9.541-16.211h2.7265l9.5411,16.211Zm-1.5947-6.67-1.48-2.3492,3.0459-7.1919h2.6679Z"/><path class="cls-2" d="M164.1063,74.8564l2.1172-11.252-2.2617-4.959h2.7548l2.03,5.0748-1.9726,11.1362Zm5.5683.0581.2608-2.0591a6.3483,6.3483,0,0,0,3.7705-.1162,3.8068,3.8068,0,0,0,2.0586-2.2471,11.0115,11.0115,0,0,0,.58-4.1909,9.2133,9.2133,0,0,0-.5508-3.3784,3.6759,3.6759,0,0,0-1.3926-1.769,3.7357,3.7357,0,0,0-2.001-.5362,3.5557,3.5557,0,0,0-1.87.4639,3.4531,3.4531,0,0,0-1.2178,1.2324,5.2549,5.2549,0,0,0-.624,1.6963l-.7246-1.334a5.3073,5.3073,0,0,1,1.8848-3.2041,4.9372,4.9372,0,0,1,2.9873-1,6.5867,6.5867,0,0,1,2.3926.42,4.8141,4.8141,0,0,1,1.8994,1.3482,6.6151,6.6151,0,0,1,1.2754,2.4219,12.9851,12.9851,0,0,1,.4931,3.6391,11.4767,11.4767,0,0,1-.9853,5.4522A5.8912,5.8912,0,0,1,174.75,74.726,8.7524,8.7524,0,0,1,169.6746,74.9145Z"/><path class="cls-2" d="M181.9412,74.8564V66.9975l.377-1.9429h2.291v9.8018Zm9.8887,0V63.9526a3.2863,3.2863,0,0,0-.7832-2.5088,2.9873,2.9873,0,0,0-2.0879-.7105h-6.96V58.6454h7.5976a5.7652,5.7652,0,0,1,2.5528.5367,3.825,3.825,0,0,1,1.7255,1.7251,6.8382,6.8382,0,0,1,.6231,3.1611V74.8564Z"/><path class="cls-2" d="M203.7489,74.8564V66.9975l.3769-1.9429h2.291v9.8018Zm9.8886,0V63.9526a3.2863,3.2863,0,0,0-.7832-2.5088,2.9871,2.9871,0,0,0-2.0879-.7105h-6.96V58.6454h7.5976a5.7652,5.7652,0,0,1,2.5528.5367,3.8257,3.8257,0,0,1,1.7256,1.7251,6.84,6.84,0,0,1,.623,3.1611V74.8564Z"/><path class="cls-2" d="M227.702,74.8564V63.9526a3.2907,3.2907,0,0,0-.7822-2.5088,2.9916,2.9916,0,0,0-2.0889-.7105H219.495V58.6454H225.47a5.763,5.763,0,0,1,2.5517.5367,3.8247,3.8247,0,0,1,1.7256,1.7251,6.84,6.84,0,0,1,.6231,3.1611V74.8564Zm-8.207,0V72.7685H232.4v2.0879Z"/><path class="cls-2" d="M235.62,68.7665v-6.728l-.378-3.3931h2.668l.3779,3.3931v4.3789l-.0293,1.8272Z"/><path class="cls-2" d="M243.6229,75.1464l-2.0586-16.501h2.5517l1.711,14.21a12.7139,12.7139,0,0,0,3.9-.812,7.4275,7.4275,0,0,0,2.77-1.8706,7.595,7.595,0,0,0,1.6387-2.9722,13.68,13.68,0,0,0,.5078-4.1181l-.0293-4.4371h2.668l.0293,4.3209a13.6881,13.6881,0,0,1-1.4649,6.7861,9.32,9.32,0,0,1-4.5381,4.0454A19.0488,19.0488,0,0,1,243.6229,75.1464Zm1.2471-6.3222-.6377-1.8267a8.4675,8.4675,0,0,0,2.3632-1.4067,4.3169,4.3169,0,0,0,1.2325-1.9864,10.8354,10.8354,0,0,0,.3769-3.1318l.0293-1.769h2.5518l-.0293,1.7109a11.5035,11.5035,0,0,1-.5938,3.7407,6.4047,6.4047,0,0,1-1.8418,2.6826A11.9688,11.9688,0,0,1,244.87,68.8242Z"/><path class="cls-2" d="M270.7957,74.8564V64.3q0-3.5669-2.8711-3.5669h-7.3662V58.6454h8.0049a5.2145,5.2145,0,0,1,2.6094.6236,4.09,4.09,0,0,1,1.6963,1.8994,7.7079,7.7079,0,0,1,.5947,3.248v10.44Zm-10.2373,0V59.6606h2.668V74.8564Z"/><path class="cls-2" d="M35.1453,107.8564V96.9526a3.2863,3.2863,0,0,0-.7832-2.5088,2.9868,2.9868,0,0,0-2.0878-.71h-5.336V91.6454h5.9746a5.7638,5.7638,0,0,1,2.5518.5367A3.8247,3.8247,0,0,1,37.19,93.9072a6.84,6.84,0,0,1,.623,3.1611v10.7881Zm-8.207,0v-2.0879H39.8436v2.0879Z"/><path class="cls-2" d="M42.1053,107.8564v-2.0879h4.002a4.7793,4.7793,0,0,0,2.4795-.58,3.5182,3.5182,0,0,0,1.45-1.7256,7.1687,7.1687,0,0,0,.4786-2.77V98.8085a7.0635,7.0635,0,0,0-.4786-2.7553,3.6074,3.6074,0,0,0-1.45-1.7251,4.6894,4.6894,0,0,0-2.4795-.5948h-4.002V91.6454h4.6113a6.9473,6.9473,0,0,1,3.5381.8409,5.2942,5.2942,0,0,1,2.19,2.48,9.5822,9.5822,0,0,1,.7392,3.9585v1.6533a9.5551,9.5551,0,0,1-.7392,3.9726,5.3,5.3,0,0,1-2.19,2.4654,6.9483,6.9483,0,0,1-3.5381.8408Z"/><path class="cls-2" d="M63.8846,107.8564V96.9526a3.29,3.29,0,0,0-.7832-2.5088,2.989,2.989,0,0,0-2.0879-.71h-5.249V91.6454h5.8867a5.7577,5.7577,0,0,1,2.5518.5367,3.825,3.825,0,0,1,1.7255,1.7251,6.8246,6.8246,0,0,1,.6241,3.1611v10.7881Z"/><path class="cls-2" d="M70.6121,107.8564V95.0385l-.3769-3.3931h2.668l.3769,3.3931v12.8179Z"/><path class="cls-2" d="M76.7889,107.8564l2.1172-11.252-2.2617-4.959h2.7549L81.4285,96.72l-1.9716,11.1362Zm5.5684.0581.2607-2.0591a6.3443,6.3443,0,0,0,3.77-.1162,3.8053,3.8053,0,0,0,2.06-2.2471,11.01,11.01,0,0,0,.58-4.1909,9.2112,9.2112,0,0,0-.5508-3.3784,3.6753,3.6753,0,0,0-1.3926-1.769,3.7354,3.7354,0,0,0-2.001-.5362,3.5533,3.5533,0,0,0-1.87.4639,3.4629,3.4629,0,0,0-1.2187,1.2324,5.2535,5.2535,0,0,0-.6231,1.6963l-.7246-1.334a5.3073,5.3073,0,0,1,1.8848-3.2041,4.9372,4.9372,0,0,1,2.9873-1.0005,6.5812,6.5812,0,0,1,2.3916.42,4.81,4.81,0,0,1,1.9,1.3482,6.6151,6.6151,0,0,1,1.2754,2.4219,12.9851,12.9851,0,0,1,.4931,3.6391,11.4749,11.4749,0,0,1-.9863,5.4522,5.884,5.884,0,0,1-3.1611,2.9726A8.749,8.749,0,0,1,82.3573,107.9145Z"/><path class="cls-2" d="M100.8006,107.8564V91.6454h2.668v16.211Zm.6377,0v-2.0879h11.4551l-.1738,2.0879Zm9.6865,0V96.9526a3.33,3.33,0,0,0-.7685-2.5088,2.9793,2.9793,0,0,0-2.1026-.71h-5.8291V91.6454h6.4668a5.7577,5.7577,0,0,1,2.5518.5367,3.82,3.82,0,0,1,1.7256,1.7251,6.826,6.826,0,0,1,.624,3.1611v10.7881Z"/><path class="cls-2" d="M116.8084,93.7333v-6.67h2.4366v6.67Zm3.3643,14.1231,5.51-14.1231h-8.8741V91.6454H128.35v2.2618l-5.51,13.9492Z"/><path class="cls-2" d="M131.743,107.8564V95.0385l-.3779-3.3931h2.6679l.378,3.3931v12.8179Z"/><path class="cls-2" d="M137.34,108.7553l-.377-2.1167,5.5108-1.0444a7.9455,7.9455,0,0,0,2.6816-.9571,4.4342,4.4342,0,0,0,1.5957-1.6816,8.1046,8.1046,0,0,0,.8115-2.581,27.3231,27.3231,0,0,0,.29-3.6978q.0439-2.16.0439-5.0313h2.668q0,3.0741-.1162,5.4664a24.6114,24.6114,0,0,1-.5225,4.19,8.8615,8.8615,0,0,1-1.2754,3.0742,6.76,6.76,0,0,1-2.3633,2.1025,12.7606,12.7606,0,0,1-3.7851,1.2613Zm4.6982-2.8711L138.326,91.6454h2.668l3.625,14.2388Z"/><path class="cls-2" d="M153.1737,93.7333v-6.67h2.4355v6.67Zm3.3642,14.1231,5.51-14.1231h-8.874V91.6454h11.542v2.2618l-5.51,13.9492Z"/><path class="cls-2" d="M173.7918,107.8564V91.6454h2.668v16.211Zm.6377,0v-2.0879h11.4551l-.1738,2.0879Zm9.6856,0V96.9526a3.33,3.33,0,0,0-.7676-2.5088,2.9792,2.9792,0,0,0-2.1025-.71h-5.8291V91.6454h6.4667a5.7577,5.7577,0,0,1,2.5518.5367,3.8247,3.8247,0,0,1,1.7256,1.7251,6.826,6.826,0,0,1,.624,3.1611v10.7881Z"/><path class="cls-2" d="M190.786,101.7665v-6.728l-.378-3.3931h2.668l.3779,3.3931v4.3789l-.0293,1.8272Z"/><path class="cls-2" d="M198.6727,108.1464,196.73,91.6454h2.668l1.624,14.065a11.0732,11.0732,0,0,0,2.7978-.6235,6.3935,6.3935,0,0,0,2.2188-1.3628,5.7679,5.7679,0,0,0,1.4209-2.2334,8.5529,8.5529,0,0,0,.4355-3.2041v-.7832a4.7151,4.7151,0,0,0-.3769-1.9429,3.18,3.18,0,0,0-1.16-1.3633,4.0869,4.0869,0,0,0-2.0009-.6089l-1.45-.0869.2031-2.1172,1.6533.1162a7.3045,7.3045,0,0,1,2.9434.7251,4.777,4.777,0,0,1,1.9863,1.856,6.4037,6.4037,0,0,1,.7832,3.103l.0283.812a10.2,10.2,0,0,1-.7539,4.5239,7.5886,7.5886,0,0,1-2.45,3.0738,11.7188,11.7188,0,0,1-3.8135,1.8125A21.1056,21.1056,0,0,1,198.6727,108.1464Z"/><path class="cls-2" d="M213.8114,107.8564V95.0385l-.378-3.3931h2.668l.3779,3.3931v12.8179Z"/><path class="cls-2" d="M221.8153,108.1464l-2.0586-16.501h2.5517l1.711,14.21a12.7146,12.7146,0,0,0,3.9-.812,7.4283,7.4283,0,0,0,2.7695-1.8706,7.595,7.595,0,0,0,1.6387-2.9722,13.68,13.68,0,0,0,.5078-4.1181l-.0293-4.4371h2.6679l.0293,4.3209a13.687,13.687,0,0,1-1.4648,6.7861,9.32,9.32,0,0,1-4.5381,4.0454A19.05,19.05,0,0,1,221.8153,108.1464Zm1.247-6.3222-.6377-1.8267a8.4667,8.4667,0,0,0,2.3633-1.4067,4.3168,4.3168,0,0,0,1.2324-1.9864,10.8316,10.8316,0,0,0,.377-3.1318l.0293-1.769h2.5518l-.0293,1.7109a11.5035,11.5035,0,0,1-.5938,3.7407,6.4047,6.4047,0,0,1-1.8418,2.6826A11.97,11.97,0,0,1,223.0623,101.8242Z"/><path class="cls-2" d="M239.04,107.8564v-2.0879h4.9883a5.9441,5.9441,0,0,0,1.8564-.2754,3.8117,3.8117,0,0,0,1.4639-.87,3.9537,3.9537,0,0,0,.9716-1.5659,7.1364,7.1364,0,0,0,.3477-2.3926v-1.856a7.946,7.946,0,0,0-.42-2.7553,3.4887,3.4887,0,0,0-1.291-1.7251,3.7677,3.7677,0,0,0-2.1748-.5948H241.97l-.7256,3.045a3.6937,3.6937,0,0,0,.0869,2.3491,2.632,2.632,0,0,0,1.9726,1.1308l-.4931,1.7691a5.2965,5.2965,0,0,1-2.7549-.8555,3.1063,3.1063,0,0,1-1.2178-1.8706,6.8107,6.8107,0,0,1,.0283-2.7256l1.1309-4.93h5.3076a5.9912,5.9912,0,0,1,3.2334.8409,5.42,5.42,0,0,1,2.0733,2.4507,9.6193,9.6193,0,0,1,.7256,3.9584v1.6529a9.7675,9.7675,0,0,1-.5079,3.3349,5.6358,5.6358,0,0,1-3.625,3.5674,8.4419,8.4419,0,0,1-2.6533.4058Z"/><path class="cls-2" d="M260.5877,107.8564V91.6454h2.668v16.211Zm.6377,0v-2.0879h11.4551l-.1738,2.0879Zm9.6856,0V96.9526a3.33,3.33,0,0,0-.7676-2.5088,2.9792,2.9792,0,0,0-2.1025-.71h-5.8291V91.6454h6.4667a5.7577,5.7577,0,0,1,2.5518.5367,3.8247,3.8247,0,0,1,1.7256,1.7251,6.826,6.826,0,0,1,.624,3.1611v10.7881Z"/><path class="cls-2" d="M277.5809,101.7665v-6.728l-.3779-3.3931h2.6679l.378,3.3931v4.3789l-.0293,1.8272Z"/><path class="cls-2" d="M283.3231,93.7333v-6.67h2.4355v6.67Zm3.3642,14.1231,5.51-14.1231h-8.874V91.6454h11.542v2.2618l-5.51,13.9492Z"/><path class="cls-2" d="M297.2713,93.7333v-6.67h2.4356v6.67Zm3.3643,14.1231,5.51-14.1231h-8.874V91.6454h11.542v2.2618l-5.51,13.9492Z"/><path class="cls-2" d="M311.25,107.8564v-2.0879h4.002a4.7816,4.7816,0,0,0,2.4795-.58,3.512,3.512,0,0,0,1.4492-1.7256,7.1707,7.1707,0,0,0,.4785-2.77V98.8085a7.0655,7.0655,0,0,0-.4785-2.7553,3.6009,3.6009,0,0,0-1.4492-1.7251,4.6916,4.6916,0,0,0-2.4795-.5948H311.25V91.6454h4.61a6.9448,6.9448,0,0,1,3.5381.8409,5.2935,5.2935,0,0,1,2.1894,2.48,9.58,9.58,0,0,1,.7393,3.9585v1.6533a9.5535,9.5535,0,0,1-.7393,3.9726,5.299,5.299,0,0,1-2.1894,2.4654,6.9458,6.9458,0,0,1-3.5381.8408Z"/></g></g></svg>