<svg xmlns="http://www.w3.org/2000/svg" width="350.7016" height="165.141" viewBox="0 0 350.7016 165.141"><defs><style>.cls-1{fill:#00a0ca;stroke:#383838;stroke-miterlimit:10;stroke-width:3px;opacity:0.9;}.cls-2{fill:#fff;}</style></defs><title>Asset 15sadna_btn</title><g id="Layer_2" data-name="Layer 2"><g id="Layer_1-2" data-name="Layer 1"><path class="cls-1" d="M344.9409,34.77c-.5975-9.1344-3.4973-18.1669-5.4664-27.2267-.9435-4.3394-3.835-6.1531-9.3572-5.9768-11.3193.3625-22.6668.0153-34.0008.1238C213.2073,2.4882,130.2147-.75,47.4146,5.1015c-13.0163.92-25.9035,3.2156-38.83,4.9844-5.0595.6922-7.3406,2.9911-7.062,7.8069,1.56,26.9946,2.378,81.6833,4.3067,108.6571.7445,10.407,3.686,20.7056,5.7379,31.0381.8645,4.3558,3.6847,6.0348,9.2436,6.0064,41.5608-.21,83.1235-.115,124.6857-.1139,27.2705,0,54.5526.4326,81.8071-.1227,27.225-.5542,54.452-1.74,81.6179-3.3756,11.5246-.6932,22.9209-3.1269,34.3249-4.9965,4.1507-.68,6.1506-2.8848,5.94-6.9362C347.7027,119.5118,346.8073,63.2886,344.9409,34.77Z"/><path class="cls-2" d="M37.4866,75.9389V65.035a3.2866,3.2866,0,0,0-.7832-2.5087,2.9885,2.9885,0,0,0-2.0879-.71H29.3664V59.7279h5.8868a5.7647,5.7647,0,0,1,2.5527.5366A3.8232,3.8232,0,0,1,39.5305,61.99a6.8267,6.8267,0,0,1,.624,3.1612V75.9389Z"/><path class="cls-2" d="M43.0832,76.8378l-.3769-2.1167,5.51-1.0445A7.9569,7.9569,0,0,0,50.9,72.72a4.4368,4.4368,0,0,0,1.5938-1.6816,8.0847,8.0847,0,0,0,.8125-2.5811,27.16,27.16,0,0,0,.29-3.6977q.0439-2.16.044-5.0313h2.6679q0,3.074-.1162,5.4663a24.5029,24.5029,0,0,1-.5224,4.1905,8.8615,8.8615,0,0,1-1.2754,3.0742,6.7629,6.7629,0,0,1-2.3633,2.1025,12.7586,12.7586,0,0,1-3.7852,1.2612Zm4.6983-2.8711L44.07,59.7279h2.6679l3.625,14.2388Z"/><path class="cls-2" d="M59.9035,75.9389V63.121l-.3769-3.3931h2.668l.3769,3.3931V75.9389Z"/><path class="cls-2" d="M74.0832,75.9389V65.035A3.2862,3.2862,0,0,0,73.3,62.5263a2.9851,2.9851,0,0,0-2.0879-.71H65.8762V59.7279h5.9746a5.7607,5.7607,0,0,1,2.5518.5366A3.8261,3.8261,0,0,1,76.1282,61.99a6.8275,6.8275,0,0,1,.623,3.1612V75.9389Zm-8.207,0V73.851H78.7815v2.0879Z"/><path class="cls-2" d="M87.8,69.849V63.121l-.3769-3.3931H90.091l.377,3.3931V67.5L90.44,69.327Z"/><path class="cls-2" d="M93.5715,75.9389V73.851h4.002a4.7791,4.7791,0,0,0,2.48-.58,3.5189,3.5189,0,0,0,1.45-1.7256,7.19,7.19,0,0,0,.4785-2.7695V66.891a7.0844,7.0844,0,0,0-.4785-2.7554,3.6082,3.6082,0,0,0-1.45-1.7251,4.6892,4.6892,0,0,0-2.48-.5947h-4.002V59.7279h4.6113a6.9449,6.9449,0,0,1,3.5372.8408,5.29,5.29,0,0,1,2.1894,2.48,9.5658,9.5658,0,0,1,.74,3.9585V68.66a9.5387,9.5387,0,0,1-.74,3.9727A5.294,5.294,0,0,1,101.72,75.098a6.9439,6.9439,0,0,1-3.5372.8409Z"/><path class="cls-2" d="M107.7815,75.9389V68.08l.3769-1.9429h2.291v9.8018Zm9.89,0V65.035a3.29,3.29,0,0,0-.7832-2.5087,2.99,2.99,0,0,0-2.0879-.71h-6.9609V59.7279h7.5986a5.7607,5.7607,0,0,1,2.5518.5366,3.8252,3.8252,0,0,1,1.7256,1.7251,6.8394,6.8394,0,0,1,.624,3.1612V75.9389Z"/><path class="cls-2" d="M129.0969,61.8158v-6.67h2.4356v6.67ZM132.46,75.9389l5.51-14.1231h-8.8731V59.7279h11.541V61.99l-5.51,13.9493Z"/><path class="cls-2" d="M151.4836,75.9389V65.035a3.29,3.29,0,0,0-.7832-2.5087,2.9868,2.9868,0,0,0-2.0879-.71h-5.3359V59.7279h5.9746a5.7563,5.7563,0,0,1,2.5508.5366,3.827,3.827,0,0,1,1.7265,1.7251,6.8389,6.8389,0,0,1,.6231,3.1612V75.9389Zm-8.207,0V73.851h12.9043v2.0879Z"/><path class="cls-2" d="M172.886,75.9389h-2.8711l-6.3516-9.57-2.9863,9.57h-2.5528l3.19-9.9761.7822-1.9722-2.6387-4.2627h2.6973l2.5234,4.002,2.58,3.8569.6973-2.4648,1.5937-5.3941h2.5821l-3.3067,10.1787Z"/><path class="cls-2" d="M181.7024,75.9389V59.7279H184.37v16.211Zm.6367,0V73.851h11.4551l-.1739,2.0879Zm9.6855,0V65.035a3.33,3.33,0,0,0-.7675-2.5087,2.9747,2.9747,0,0,0-2.1016-.71h-5.83V59.7279h6.4668a5.7621,5.7621,0,0,1,2.5528.5366A3.8241,3.8241,0,0,1,194.07,61.99a6.8259,6.8259,0,0,1,.625,3.1612V75.9389Z"/><path class="cls-2" d="M198.6965,75.9389V63.121l-.3789-3.3931h2.668l.3789,3.3931V75.9389Z"/><path class="cls-2" d="M204.4367,61.8158v-6.67h2.4356v6.67Zm3.3653,14.1231,5.51-14.1231h-8.875V59.7279H215.98V61.99l-5.51,13.9493Z"/><path class="cls-2" d="M229.2317,75.9389V65.3827q0-3.5668-2.8711-3.5669h-7.3672V59.7279h8.0058a5.2169,5.2169,0,0,1,2.6094.6235,4.0886,4.0886,0,0,1,1.6953,1.9,7.7066,7.7066,0,0,1,.5957,3.248v10.44Zm-10.2383,0V60.7431h2.668V75.9389Z"/><path class="cls-2" d="M234.9153,61.8158v-6.67h2.4355v6.67Zm3.3652,14.1231,5.51-14.1231h-8.875V59.7279h11.5429V61.99l-5.51,13.9493Z"/><path class="cls-2" d="M255.65,69.849V63.121l-.3769-3.3931h2.668l.3769,3.3931V67.5l-.0293,1.8271Z"/><path class="cls-2" d="M260.6965,76.3739l-.2617-1.8852a4.2768,4.2768,0,0,0,1.7988-.5074,2.0394,2.0394,0,0,0,.8828-1.102,5.4052,5.4052,0,0,0,.2481-1.7544V59.7279h7.4531a5.759,5.759,0,0,1,2.5508.5366A3.8277,3.8277,0,0,1,275.095,61.99a6.8531,6.8531,0,0,1,.623,3.1612V75.9389H273.05V65.035a3.322,3.322,0,0,0-.7695-2.5087,2.9745,2.9745,0,0,0-2.1016-.71h-4.1464v9.019a6.8275,6.8275,0,0,1-.5665,2.9869,3.8519,3.8519,0,0,1-1.74,1.769A8.2881,8.2881,0,0,1,260.6965,76.3739Z"/><path class="cls-2" d="M293.175,75.9389h-2.8711l-6.35-9.57-2.9883,9.57h-2.5507l3.1894-9.9761.7832-1.9722-2.6387-4.2627h2.6973l2.5215,4.002,2.582,3.8569.6953-2.4648,1.5957-5.3941h2.58l-3.3047,10.1787Z"/><path class="cls-2" d="M303.761,75.9389V65.035a3.2905,3.2905,0,0,0-.7832-2.5087,2.9885,2.9885,0,0,0-2.0879-.71h-5.336V59.7279h5.9746a5.7587,5.7587,0,0,1,2.5508.5366,3.8272,3.8272,0,0,1,1.7266,1.7251,6.8518,6.8518,0,0,1,.623,3.1612V75.9389Zm-8.2071,0V73.851h12.9043v2.0879Z"/><path class="cls-2" d="M312.4328,63.5848l-.5234-4.9008-.0566-2.7549h2.6679l-.0879,2.7549-.4921,4.9008Zm5.2481,0-.5215-4.9008-.0586-2.7549h2.668l-.086,2.7549-.4941,4.9008Z"/><path class="cls-2" d="M28.5989,96.5848l-.5225-4.9008-.0576-2.7549h2.6679l-.0878,2.7549-.4922,4.9008Zm5.248,0-.5215-4.9008-.0586-2.7549h2.668l-.0859,2.7549-.4932,4.9008Z"/><path class="cls-2" d="M40.3137,108.9389V92.7279h2.668v16.211Zm.6387,0V106.851H52.4075l-.1739,2.0879Zm9.6855,0V98.035a3.3261,3.3261,0,0,0-.7685-2.5087,2.9788,2.9788,0,0,0-2.1026-.7105H41.9377V92.7279h6.4678a5.7563,5.7563,0,0,1,2.5508.5366A3.8227,3.8227,0,0,1,52.6828,94.99a6.8389,6.8389,0,0,1,.6231,3.1612v10.7881Z"/><path class="cls-2" d="M57.3078,108.9389V96.121l-.3769-3.3931h2.668l.3769,3.3931v12.8179Z"/><path class="cls-2" d="M64.0354,102.849V96.121l-.377-3.3931h2.668l.377,3.3931V100.5l-.0284,1.8271Z"/><path class="cls-2" d="M70.2707,108.9389V101.08l.377-1.9429h2.291v9.8018Zm9.8887,0V98.035a3.29,3.29,0,0,0-.7832-2.5087,2.9868,2.9868,0,0,0-2.0879-.7105h-6.96V92.7279H77.927a5.7563,5.7563,0,0,1,2.5508.5366A3.8227,3.8227,0,0,1,82.2043,94.99a6.8389,6.8389,0,0,1,.6231,3.1612v10.7881Z"/><path class="cls-2" d="M91.2951,109.3739l-.2607-1.8852a4.2764,4.2764,0,0,0,1.7979-.5074,2.037,2.037,0,0,0,.8837-1.102,5.4073,5.4073,0,0,0,.2471-1.7544V92.7279h7.4531a5.76,5.76,0,0,1,2.5518.5366,3.8252,3.8252,0,0,1,1.7256,1.7251,6.8394,6.8394,0,0,1,.624,3.1612v10.7881H103.65V98.035a3.326,3.326,0,0,0-.77-2.5087,2.9745,2.9745,0,0,0-2.1016-.7105H96.6311v9.019a6.83,6.83,0,0,1-.5654,2.9869,3.8526,3.8526,0,0,1-1.74,1.769A8.2877,8.2877,0,0,1,91.2951,109.3739Z"/><path class="cls-2" d="M123.7746,108.9389h-2.8711l-6.35-9.57-2.9873,9.57h-2.5518l3.19-9.9761.7823-1.9722-2.6387-4.2627h2.6963l2.5234,4.002,2.5811,3.8569.6963-2.4648,1.5947-5.3941h2.581l-3.3066,10.1787Z"/><path class="cls-2" d="M139.7825,108.9389V98.035a3.2862,3.2862,0,0,0-.7833-2.5087,2.9847,2.9847,0,0,0-2.0878-.7105h-5.2481V92.7279H137.55a5.7607,5.7607,0,0,1,2.5518.5366,3.8252,3.8252,0,0,1,1.7256,1.7251,6.8275,6.8275,0,0,1,.623,3.1612v10.7881Z"/><path class="cls-2" d="M153.9641,108.9389V98.035a3.29,3.29,0,0,0-.7832-2.5087,2.99,2.99,0,0,0-2.0879-.7105h-5.3359V92.7279h5.9736a5.7607,5.7607,0,0,1,2.5518.5366A3.8255,3.8255,0,0,1,156.008,94.99a6.8381,6.8381,0,0,1,.6241,3.1612v10.7881Zm-8.207,0V106.851h12.9043v2.0879Z"/><path class="cls-2" d="M161.88,108.9389V96.121l-.3769-3.3931h2.6679l.377,3.3931v12.8179Z"/><path class="cls-2" d="M167.4778,109.8378l-.377-2.1167,5.51-1.0445a7.9536,7.9536,0,0,0,2.6816-.957,4.441,4.441,0,0,0,1.5957-1.6816,8.1082,8.1082,0,0,0,.8106-2.5811,27.3215,27.3215,0,0,0,.291-3.6977q.044-2.16.043-5.0313H180.7q0,3.0739-.1152,5.4663a24.5952,24.5952,0,0,1-.5235,4.1905,8.8442,8.8442,0,0,1-1.2753,3.0742,6.7541,6.7541,0,0,1-2.3633,2.1025,12.7586,12.7586,0,0,1-3.7852,1.2612Zm4.6972-2.8711-3.7129-14.2388h2.668l3.625,14.2388Z"/><path class="cls-2" d="M190.0969,102.849V96.121l-.3769-3.3931h2.6679l.377,3.3931V100.5l-.0293,1.8271Z"/><path class="cls-2" d="M196.0129,108.9389V106.851h4.8711V97.4838a2.8891,2.8891,0,0,0-.5508-1.9864,2.5484,2.5484,0,0,0-1.5664-.74l-1.9707-.3188.377-2.03,2.7539.4057a4.06,4.06,0,0,1,2.6836,1.4356,4.94,4.94,0,0,1,.9414,3.1753v11.5132Z"/><path class="cls-2" d="M221.0676,108.9389h-2.8711l-6.35-9.57-2.9883,9.57h-2.5508l3.19-9.9761.7832-1.9722-2.6387-4.2627h2.6973l2.5215,4.002,2.582,3.8569.6953-2.4648,1.5957-5.3941h2.58l-3.3047,10.1787Z"/><path class="cls-2" d="M237.9172,114.7387V98.035a3.29,3.29,0,0,0-.7832-2.5087,2.9883,2.9883,0,0,0-2.0879-.7105h-5.7129V92.7279h6.3516a5.7533,5.7533,0,0,1,2.5508.5366,3.827,3.827,0,0,1,1.7265,1.7251,6.8262,6.8262,0,0,1,.6231,3.1612v16.5879Z"/><path class="cls-2" d="M244.6457,102.849V96.121l-.3789-3.3931h2.668l.3789,3.3931V100.5l-.0293,1.8271Z"/><path class="cls-2" d="M264.8567,108.9389h-2.8711l-6.35-9.57-2.9883,9.57h-2.5508l3.1895-9.9761.7832-1.9722-2.6387-4.2627h2.6973L256.65,96.73l2.5821,3.8569.6953-2.4648,1.5957-5.3941h2.58l-3.3047,10.1787Z"/><path class="cls-2" d="M273.2961,108.9389V101.08l.377-1.9429h2.291v9.8018Zm9.8887,0V98.035a3.2827,3.2827,0,0,0-.7832-2.5087,2.9851,2.9851,0,0,0-2.0879-.7105h-6.959V92.7279h7.5977a5.7675,5.7675,0,0,1,2.5527.5366A3.8232,3.8232,0,0,1,285.23,94.99a6.8275,6.8275,0,0,1,.6231,3.1612v10.7881Z"/><path class="cls-2" d="M291.1594,108.9389v-10.73a7.9,7.9,0,0,1,.2188-1.9575,4.7721,4.7721,0,0,1,.5937-1.4356H289.13V92.7279h7.5977v2.0879H294.466a4.0674,4.0674,0,0,0-.5371,1.6675,16.563,16.563,0,0,0-.1015,1.7256v10.73Z"/><path class="cls-2" d="M306.1535,102.849V96.121l-.3789-3.3931h2.668l.3789,3.3931V100.5l-.0293,1.8271Z"/><path class="cls-2" d="M311.8957,94.8158v-6.67h2.4356v6.67Zm3.3633,14.1231,5.51-14.1231h-8.8731V92.7279h11.541V94.99l-5.51,13.9493Z"/></g></g></svg>