<svg xmlns="http://www.w3.org/2000/svg" width="350.7016" height="165.141" viewBox="0 0 350.7016 165.141"><defs><style>.cls-1{fill:#00a0ca;stroke:#383838;stroke-miterlimit:10;stroke-width:3px;opacity:0.9;}.cls-2{fill:#fff;}</style></defs><title>Asset 10sadna_btn</title><g id="Layer_2" data-name="Layer 2"><g id="Layer_1-2" data-name="Layer 1"><path class="cls-1" d="M344.9409,34.77c-.5975-9.1344-3.4973-18.1669-5.4664-27.2267-.9435-4.3394-3.835-6.1531-9.3572-5.9768-11.3193.3625-22.6668.0153-34.0008.1238C213.2073,2.4882,130.2147-.75,47.4146,5.1015c-13.0163.92-25.9035,3.2156-38.83,4.9844-5.0595.6922-7.3406,2.9911-7.062,7.8069,1.56,26.9946,2.378,81.6833,4.3067,108.6571.7445,10.407,3.686,20.7056,5.7379,31.0381.8645,4.3558,3.6847,6.0348,9.2436,6.0064,41.5608-.21,83.1235-.115,124.6857-.1139,27.2705,0,54.5526.4326,81.8071-.1227,27.225-.5542,54.452-1.74,81.6179-3.3756,11.5246-.6932,22.9209-3.1269,34.3249-4.9965,4.1507-.68,6.1506-2.8848,5.94-6.9362C347.7027,119.5118,346.8073,63.2886,344.9409,34.77Z"/><path class="cls-2" d="M66.4354,68.8834V66.9693h6.67v1.9141Z"/><path class="cls-2" d="M80.9354,75.64l-.2608-1.8857a4.2769,4.2769,0,0,0,1.7979-.5069,2.0431,2.0431,0,0,0,.8848-1.1025,5.4106,5.4106,0,0,0,.2461-1.7539V58.9937h7.4531a5.75,5.75,0,0,1,2.5517.5371,3.8236,3.8236,0,0,1,1.7256,1.7246,6.8267,6.8267,0,0,1,.624,3.1612V75.2047H93.29V64.3013a3.329,3.329,0,0,0-.7686-2.5088,2.9792,2.9792,0,0,0-2.1025-.7109H86.2713v9.02a6.826,6.826,0,0,1-.5654,2.9864,3.8557,3.8557,0,0,1-1.74,1.7695A8.2853,8.2853,0,0,1,80.9354,75.64Z"/><path class="cls-2" d="M99.9305,69.1148V62.3873l-.377-3.3936h2.668l.377,3.3936v4.3789l-.0293,1.8271Z"/><path class="cls-2" d="M114.1112,75.2047V64.3013a3.2894,3.2894,0,0,0-.7832-2.5088,2.9892,2.9892,0,0,0-2.0879-.7109h-5.336V58.9937h5.9737a5.75,5.75,0,0,1,2.5517.5371,3.8236,3.8236,0,0,1,1.7256,1.7246,6.8267,6.8267,0,0,1,.624,3.1612V75.2047Zm-8.2071,0V73.1168h12.9043v2.0879Z"/><path class="cls-2" d="M122.0282,69.1148V62.3873l-.378-3.3936h2.668l.3779,3.3936v4.3789l-.0293,1.8271Z"/><path class="cls-2" d="M129.9149,75.4947l-1.9424-16.501h2.668l1.624,14.0654a11.0433,11.0433,0,0,0,2.7978-.624,6.3829,6.3829,0,0,0,2.2188-1.3623,5.7672,5.7672,0,0,0,1.4209-2.2334,8.5541,8.5541,0,0,0,.4355-3.2041v-.7832a4.7187,4.7187,0,0,0-.3769-1.9433,3.1818,3.1818,0,0,0-1.16-1.3633,4.0806,4.0806,0,0,0-2.001-.6084l-1.45-.0869.2031-2.1172,1.6533.1162a7.3044,7.3044,0,0,1,2.9434.7246,4.7779,4.7779,0,0,1,1.9863,1.8564,6.4005,6.4005,0,0,1,.7832,3.1026l.0283.8125a10.1988,10.1988,0,0,1-.7539,4.5234,7.5933,7.5933,0,0,1-2.45,3.0742,11.7269,11.7269,0,0,1-3.8135,1.8125A21.0785,21.0785,0,0,1,129.9149,75.4947Z"/><path class="cls-2" d="M149.6932,75.2047l-.2324-2.0586a8.3818,8.3818,0,0,0,1.8125-.4209,4.0036,4.0036,0,0,0,1.5078-.9571,4.8366,4.8366,0,0,0,1.0732-1.8408,11.296,11.296,0,0,0,.5371-2.9873l.4639-5.8584H144.5018V58.9937h13.2246L157.61,60.85l-.4356,5.51a14.4779,14.4779,0,0,1-.6523,3.7412,8.1624,8.1624,0,0,1-1.4785,2.74,6.429,6.429,0,0,1-2.291,1.7256A7.6654,7.6654,0,0,1,149.6932,75.2047Zm-5.1914,5.8V66.9976l.3769-1.9717H147.17V81.0045Z"/><path class="cls-2" d="M161.1483,75.2047V73.1168h4.9883a5.9441,5.9441,0,0,0,1.8564-.2754,3.813,3.813,0,0,0,1.4639-.87,3.9521,3.9521,0,0,0,.9716-1.5655,7.136,7.136,0,0,0,.3477-2.3926V66.1568a7.9436,7.9436,0,0,0-.42-2.7549,3.49,3.49,0,0,0-1.291-1.7256,3.7715,3.7715,0,0,0-2.1748-.5947H164.078l-.7256,3.0449a3.695,3.695,0,0,0,.0869,2.35,2.6347,2.6347,0,0,0,1.9726,1.1309l-.4931,1.7686a5.2873,5.2873,0,0,1-2.7549-.8555,3.1052,3.1052,0,0,1-1.2178-1.87,6.8107,6.8107,0,0,1,.0283-2.7256l1.1309-4.9307h5.3076a5.9921,5.9921,0,0,1,3.2334.8408,5.4247,5.4247,0,0,1,2.0733,2.4512,9.6177,9.6177,0,0,1,.7255,3.958V67.897a9.77,9.77,0,0,1-.5078,3.335,5.6388,5.6388,0,0,1-3.625,3.5674,8.4419,8.4419,0,0,1-2.6533.4053Z"/><path class="cls-2" d="M190.4959,75.2047h-2.8711l-6.35-9.5694-2.9874,9.5694h-2.5517l3.1894-9.9756.7832-1.9727-2.6386-4.2627h2.6972l2.5225,4.002,2.5811,3.8574.6962-2.4649,1.5948-5.3945h2.581l-3.3056,10.1787Z"/><path class="cls-2" d="M198.1522,75.64l-.2608-1.8857a4.2769,4.2769,0,0,0,1.7979-.5069,2.0369,2.0369,0,0,0,.8838-1.1025,5.4087,5.4087,0,0,0,.247-1.7539V58.9937h7.4532a5.7562,5.7562,0,0,1,2.5517.5371,3.8236,3.8236,0,0,1,1.7256,1.7246,6.8389,6.8389,0,0,1,.6231,3.1612V75.2047h-2.668V64.3013a3.325,3.325,0,0,0-.7686-2.5088,2.9758,2.9758,0,0,0-2.1025-.7109h-4.1465v9.02a6.826,6.826,0,0,1-.5654,2.9864,3.8557,3.8557,0,0,1-1.74,1.7695A8.29,8.29,0,0,1,198.1522,75.64Z"/><path class="cls-2" d="M217.1473,75.2047V62.3873l-.3779-3.3936h2.6679l.378,3.3936V75.2047Z"/><path class="cls-2" d="M223.41,75.64l-.9854-2.1465a10.3781,10.3781,0,0,0,3.4073-1.87,8.5554,8.5554,0,0,0,2.2187-3.03l.87,1.5948a10.7848,10.7848,0,0,1-1.32,2.4355,7.9137,7.9137,0,0,1-1.8125,1.7842A10.2453,10.2453,0,0,1,223.41,75.64Zm5.5976-.4355-1.1308-6.1768V63.75a4.4519,4.4519,0,0,0-.334-1.9717,1.64,1.64,0,0,0-1.3193-.7832l-1.8565-.29.377-2.0293,2.64.4052a3.2543,3.2543,0,0,1,2.45,1.3194,5.64,5.64,0,0,1,.711,3.0888v5.5967l1.0146,6.1192Z"/><path class="cls-2" d="M235.0106,69.1148V62.3873l-.378-3.3936h2.668l.3779,3.3936v4.3789l-.0292,1.8271Z"/><path class="cls-2" d="M241.2459,75.2047V67.3463l.377-1.9434h2.291v9.8018Zm9.8887,0V64.3013a3.2851,3.2851,0,0,0-.7832-2.5088,2.9875,2.9875,0,0,0-2.0879-.7109h-6.96V58.9937h7.5977a5.7576,5.7576,0,0,1,2.5527.5371,3.8236,3.8236,0,0,1,1.7256,1.7246,6.8389,6.8389,0,0,1,.6231,3.1612V75.2047Z"/><path class="cls-2" d="M256.9334,75.2047V73.1168h4.8721V63.75a2.8891,2.8891,0,0,0-.5508-1.9864,2.5531,2.5531,0,0,0-1.5664-.7392l-1.9717-.3193.377-2.0293,2.7549.4052a4.0572,4.0572,0,0,1,2.6826,1.4356,4.9355,4.9355,0,0,1,.9424,3.1758V75.2047Z"/><path class="cls-2" d="M267.953,75.2047l2.1171-11.252-2.2617-4.959h2.7549l2.03,5.0752-1.9727,11.1358Zm5.5683.0585.2608-2.0595a6.3483,6.3483,0,0,0,3.77-.1162,3.8039,3.8039,0,0,0,2.0586-2.2471,11.0073,11.0073,0,0,0,.58-4.19,9.212,9.212,0,0,0-.5507-3.3789,3.6723,3.6723,0,0,0-1.3926-1.7686,3.7365,3.7365,0,0,0-2.001-.5361,3.5517,3.5517,0,0,0-1.87.4638,3.4486,3.4486,0,0,0-1.2178,1.2325,5.2549,5.2549,0,0,0-.624,1.6963l-.7246-1.334a5.3069,5.3069,0,0,1,1.8847-3.2041,4.938,4.938,0,0,1,2.9874-1.001,6.5841,6.5841,0,0,1,2.3925.4209,4.8129,4.8129,0,0,1,1.8994,1.3476A6.6178,6.6178,0,0,1,282.25,63.01a12.9857,12.9857,0,0,1,.4932,3.64,11.4748,11.4748,0,0,1-.9854,5.4521,5.8942,5.8942,0,0,1-3.1611,2.9727A8.7517,8.7517,0,0,1,273.5213,75.2632Z"/><path class="cls-2" d="M57.8953,108.2047V91.9937h2.669v16.211Zm.6387,0v-2.0879H69.9891l-.1738,2.0879Zm9.6856,0V97.3013a3.325,3.325,0,0,0-.7686-2.5088,2.976,2.976,0,0,0-2.1025-.7109H59.5194V91.9937h6.4677a5.7566,5.7566,0,0,1,2.5518.5371,3.8236,3.8236,0,0,1,1.7256,1.7246,6.84,6.84,0,0,1,.623,3.1612v10.7881Z"/><path class="cls-2" d="M74.89,108.2047V95.3873l-.377-3.3936h2.668l.377,3.3936v12.8174Z"/><path class="cls-2" d="M81.0662,108.2047l2.1172-11.252-2.2617-4.959h2.7549l2.0293,5.0752-1.9717,11.1358Zm5.5684.0585.2607-2.0595a6.3446,6.3446,0,0,0,3.77-.1162,3.8023,3.8023,0,0,0,2.06-2.2471,11.0052,11.0052,0,0,0,.58-4.19,9.21,9.21,0,0,0-.5508-3.3789,3.6722,3.6722,0,0,0-1.3925-1.7686,3.7365,3.7365,0,0,0-2.001-.5361,3.5493,3.5493,0,0,0-1.87.4638,3.4594,3.4594,0,0,0-1.2188,1.2325,5.2533,5.2533,0,0,0-.623,1.6963l-.7246-1.334a5.3069,5.3069,0,0,1,1.8847-3.2041,4.9377,4.9377,0,0,1,2.9873-1.001,6.5788,6.5788,0,0,1,2.3916.4209,4.81,4.81,0,0,1,1.9,1.3476A6.6208,6.6208,0,0,1,95.3631,96.01a12.9857,12.9857,0,0,1,.4932,3.64,11.4754,11.4754,0,0,1-.9863,5.4521,5.8879,5.8879,0,0,1-3.1612,2.9727A8.7483,8.7483,0,0,1,86.6346,108.2632Z"/><path class="cls-2" d="M99.3944,102.1148V95.3873l-.377-3.3936h2.668l.3769,3.3936v4.3789l-.0293,1.8271Z"/><path class="cls-2" d="M107.3114,108.4947,105.6,94.0816l2.4942-1.3047,1.5654,13.2822a12.0332,12.0332,0,0,0,2.2617-.3769,7.5965,7.5965,0,0,0,1.9434-.8125,5.1245,5.1245,0,0,0,1.48-1.334,5.6352,5.6352,0,0,0,.913-1.9863,9.1324,9.1324,0,0,0,.2178-2.77v-.754a5.2877,5.2877,0,0,0-.3623-2.0156,3.1708,3.1708,0,0,0-1.0879-1.4062,2.9437,2.9437,0,0,0-1.7695-.5225H105.6l-.2617-2.0879h8.1494a5.2,5.2,0,0,1,4.0889,1.624,6.5806,6.5806,0,0,1,1.5371,4.3213l.0293.8985a9.5759,9.5759,0,0,1-.7832,4.48,7.1264,7.1264,0,0,1-2.4942,2.9,11.8723,11.8723,0,0,1-3.8134,1.6241A24.5569,24.5569,0,0,1,107.3114,108.4947Z"/><path class="cls-2" d="M127.4071,108.2047l-.2325-2.0586a8.38,8.38,0,0,0,1.8125-.4209,4.0032,4.0032,0,0,0,1.5079-.9571,4.8379,4.8379,0,0,0,1.0732-1.8408,11.296,11.296,0,0,0,.5371-2.9873l.4639-5.8584H122.2157V91.9937H135.44l-.1162,1.8565-.4356,5.51a14.4779,14.4779,0,0,1-.6523,3.7412,8.1626,8.1626,0,0,1-1.4786,2.74,6.4281,6.4281,0,0,1-2.291,1.7256A7.6649,7.6649,0,0,1,127.4071,108.2047Zm-5.1914,5.8V99.9976l.3769-1.9717h2.291v15.9786Z"/><path class="cls-2" d="M138.3983,108.2047l2.1172-11.252-2.2618-4.959h2.7549l2.03,5.0752-1.9727,11.1358Zm5.5683.0585.2608-2.0595a6.3483,6.3483,0,0,0,3.77-.1162,3.8039,3.8039,0,0,0,2.0586-2.2471,11.0091,11.0091,0,0,0,.58-4.19,9.2139,9.2139,0,0,0-.5508-3.3789,3.6723,3.6723,0,0,0-1.3926-1.7686,3.7365,3.7365,0,0,0-2.001-.5361,3.5517,3.5517,0,0,0-1.87.4638,3.4494,3.4494,0,0,0-1.2178,1.2325,5.2549,5.2549,0,0,0-.624,1.6963l-.7246-1.334a5.307,5.307,0,0,1,1.8848-3.2041,4.9377,4.9377,0,0,1,2.9873-1.001,6.5837,6.5837,0,0,1,2.3925.4209,4.8132,4.8132,0,0,1,1.9,1.3476,6.6192,6.6192,0,0,1,1.2753,2.4219,12.9857,12.9857,0,0,1,.4932,3.64,11.476,11.476,0,0,1-.9853,5.4521,5.8947,5.8947,0,0,1-3.1612,2.9727A8.7516,8.7516,0,0,1,143.9666,108.2632Z"/><path class="cls-2" d="M155.74,94.0816v-6.67h2.4355v6.67Zm3.3642,14.1231,5.51-14.1231H155.74V91.9937h11.542v2.2617l-5.51,13.9493Z"/><path class="cls-2" d="M182.9129,108.2047v-10.73a7.955,7.955,0,0,1,.2178-1.958,4.7833,4.7833,0,0,1,.5947-1.4356H175.75V91.9937h12.6729v2.0879h-2.1748a4.7068,4.7068,0,0,0-.5361,1.668,12.6571,12.6571,0,0,0-.1309,1.7256v10.73Z"/><path class="cls-2" d="M190.9159,109.1041l-.377-2.1172,5.5107-1.044a7.9561,7.9561,0,0,0,2.6817-.957,4.4385,4.4385,0,0,0,1.5957-1.6816,8.1144,8.1144,0,0,0,.8115-2.5811,27.3136,27.3136,0,0,0,.29-3.6982q.0439-2.1593.044-5.0313h2.668q0,3.0747-.1162,5.4668a24.6167,24.6167,0,0,1-.5225,4.19,8.8612,8.8612,0,0,1-1.2754,3.0743,6.7727,6.7727,0,0,1-2.3633,2.1025,12.7451,12.7451,0,0,1-3.7851,1.2607Zm4.6982-2.8711-3.7119-14.2393H194.57l3.625,14.2393Z"/><path class="cls-2" d="M213.42,108.2047V91.9937h2.6679v16.211Zm.6377,0v-2.0879h11.455l-.1738,2.0879Zm9.6855,0V97.3013a3.3291,3.3291,0,0,0-.7676-2.5088,2.9792,2.9792,0,0,0-2.1025-.7109h-5.8291V91.9937h6.4668a5.75,5.75,0,0,1,2.5517.5371,3.8236,3.8236,0,0,1,1.7256,1.7246,6.8267,6.8267,0,0,1,.624,3.1612v10.7881Z"/><path class="cls-2" d="M230.4139,102.1148V95.3873l-.3779-3.3936h2.6679l.378,3.3936v4.3789l-.0293,1.8271Z"/><path class="cls-2" d="M236.1551,94.0816v-6.67h2.4356v6.67Zm3.3643,14.1231,5.51-14.1231h-8.874V91.9937h11.542v2.2617l-5.51,13.9493Z"/><path class="cls-2" d="M250.5975,108.2047v-7.8584l.3769-1.9434h2.2911v9.8018Zm9.8887,0V97.3013a3.2855,3.2855,0,0,0-.7832-2.5088,2.9875,2.9875,0,0,0-2.0879-.7109h-6.96V91.9937h7.5977a5.7579,5.7579,0,0,1,2.5527.5371,3.8236,3.8236,0,0,1,1.7256,1.7246,6.84,6.84,0,0,1,.623,3.1612v10.7881Z"/><path class="cls-2" d="M266.285,108.2047v-2.0879h4.8721V96.75a2.8891,2.8891,0,0,0-.5508-1.9864,2.5536,2.5536,0,0,0-1.5664-.7392l-1.9717-.3193.3769-2.0293,2.7549.4052a4.057,4.057,0,0,1,2.6826,1.4356,4.9349,4.9349,0,0,1,.9424,3.1758v11.5127Z"/><path class="cls-2" d="M277.3045,108.2047l2.1172-11.252-2.2617-4.959h2.7549l2.03,5.0752-1.9726,11.1358Zm5.5684.0585.2607-2.0595a6.3482,6.3482,0,0,0,3.7705-.1162,3.8039,3.8039,0,0,0,2.0586-2.2471,11.0071,11.0071,0,0,0,.58-4.19,9.21,9.21,0,0,0-.5508-3.3789,3.6717,3.6717,0,0,0-1.3926-1.7686,3.7359,3.7359,0,0,0-2.0009-.5361,3.5517,3.5517,0,0,0-1.87.4638,3.4486,3.4486,0,0,0-1.2178,1.2325,5.2549,5.2549,0,0,0-.624,1.6963l-.7247-1.334a5.307,5.307,0,0,1,1.8848-3.2041,4.9377,4.9377,0,0,1,2.9873-1.001,6.5846,6.5846,0,0,1,2.3926.4209,4.8136,4.8136,0,0,1,1.8994,1.3476,6.6208,6.6208,0,0,1,1.2754,2.4219,12.9893,12.9893,0,0,1,.4932,3.64,11.4748,11.4748,0,0,1-.9854,5.4521,5.8942,5.8942,0,0,1-3.1611,2.9727A8.7517,8.7517,0,0,1,282.8729,108.2632Z"/></g></g></svg>