<svg xmlns="http://www.w3.org/2000/svg" width="351.7016" height="166.141" viewBox="0 0 351.7016 166.141"><defs><style>.cls-1{fill:#67a7b8;stroke:#383838;stroke-miterlimit:10;stroke-width:4px;opacity:0.9;}.cls-2{fill:#b9b8b8;}</style></defs><title>Asset 1hover_btn</title><g id="Layer_2" data-name="Layer 2"><g id="Layer_1-2" data-name="Layer 1"><path class="cls-1" d="M345.4409,35.27c-.5975-9.1344-3.4973-18.1669-5.4664-27.2267-.9435-4.3394-3.835-6.1531-9.3572-5.9768-11.3193.3625-22.6668.0153-34.0008.1238C213.7073,2.9882,130.7147-.25,47.9146,5.6015c-13.0163.92-25.9035,3.2156-38.83,4.9844-5.0595.6922-7.3406,2.9911-7.062,7.8069,1.56,26.9946,2.378,81.6833,4.3067,108.6571.7445,10.407,3.686,20.7056,5.7379,31.0381.8645,4.3558,3.6847,6.0348,9.2436,6.0064,41.5608-.21,83.1235-.115,124.6857-.1139,27.2705,0,54.5526.4326,81.8071-.1227,27.225-.5542,54.452-1.74,81.6179-3.3756,11.5246-.6932,22.9209-3.1269,34.3249-4.9965,4.1507-.68,6.1506-2.8848,5.94-6.9362C348.2027,120.0118,347.3073,63.7886,345.4409,35.27Z"/><path class="cls-2" d="M149.3314,88.516a7.0375,7.0375,0,0,1-4.4205-1.4462,4.2146,4.2146,0,0,1-1.876-3.4041v-1.19a4.2141,4.2141,0,0,1,1.876-3.4024,7.04,7.04,0,0,1,4.4205-1.448H167.344c.6613,0,.992-.254.992-.7657V63.248a4.2591,4.2591,0,0,1,1.8239-3.4042,6.8154,6.8154,0,0,1,4.3648-1.4462h2.6523a6.8287,6.8287,0,0,1,4.3647,1.4462,4.255,4.255,0,0,1,1.82,3.4042V76.8592c0,.5117.3342.7657.9955.7657h18.0091a7.04,7.04,0,0,1,4.4205,1.448,4.2183,4.2183,0,0,1,1.88,3.4024v1.19a4.2189,4.2189,0,0,1-1.88,3.4041,7.0375,7.0375,0,0,1-4.4205,1.4462H184.3576c-.6613,0-.9955.2541-.9955.7658v13.613a4.2494,4.2494,0,0,1-1.82,3.4023,6.8185,6.8185,0,0,1-4.3647,1.4463h-2.6523a6.8052,6.8052,0,0,1-4.3648-1.4463,4.2534,4.2534,0,0,1-1.8239-3.4023V89.2818c0-.5117-.3307-.7658-.992-.7658Z"/></g></g></svg>