<svg xmlns="http://www.w3.org/2000/svg" width="350.7016" height="165.141" viewBox="0 0 350.7016 165.141"><defs><style>.cls-1{fill:#00a0ca;stroke:#383838;stroke-miterlimit:10;stroke-width:3px;opacity:0.9;}.cls-2{fill:#fff;}</style></defs><title>Asset 8sadna_btn</title><g id="Layer_2" data-name="Layer 2"><g id="Layer_1-2" data-name="Layer 1"><path class="cls-1" d="M344.9409,34.77c-.5975-9.1344-3.4973-18.1669-5.4664-27.2267-.9435-4.3394-3.835-6.1531-9.3572-5.9768-11.3193.3625-22.6668.0153-34.0008.1238C213.2073,2.4882,130.2147-.75,47.4146,5.1015c-13.0163.92-25.9035,3.2156-38.83,4.9844-5.0595.6922-7.3406,2.9911-7.062,7.8069,1.56,26.9946,2.378,81.6833,4.3067,108.6571.7445,10.407,3.686,20.7056,5.7379,31.0381.8645,4.3558,3.6847,6.0348,9.2436,6.0064,41.5608-.21,83.1235-.115,124.6857-.1139,27.2705,0,54.5526.4326,81.8071-.1227,27.225-.5542,54.452-1.74,81.6179-3.3756,11.5246-.6932,22.9209-3.1269,34.3249-4.9965,4.1507-.68,6.1506-2.8848,5.94-6.9362C347.7027,119.5118,346.8073,63.2886,344.9409,34.77Z"/><path class="cls-2" d="M92.8112,75.1715V67.3121l.3769-1.9424h2.291v9.8018Zm9.89,0V64.2672a3.2918,3.2918,0,0,0-.7832-2.5088,2.9883,2.9883,0,0,0-2.0879-.71H92.87V58.9605h7.5976a5.7645,5.7645,0,0,1,2.5518.5361,3.8225,3.8225,0,0,1,1.7256,1.7256,6.8267,6.8267,0,0,1,.624,3.1612V75.1715Z"/><path class="cls-2" d="M108.1813,76.07l-.377-2.1162,5.51-1.0449a7.9349,7.9349,0,0,0,2.6826-.9571,4.428,4.428,0,0,0,1.5947-1.6816,8.0756,8.0756,0,0,0,.8125-2.5811,27.312,27.312,0,0,0,.29-3.6972q.0439-2.1607.0429-5.0313h2.668q0,3.0732-.1152,5.4658a24.6972,24.6972,0,0,1-.5225,4.1905,8.8806,8.8806,0,0,1-1.2754,3.0742,6.7475,6.7475,0,0,1-2.3642,2.1025,12.7663,12.7663,0,0,1-3.7842,1.2617Zm4.6982-2.8711-3.7119-14.2383h2.668l3.625,14.2383Z"/><path class="cls-2" d="M131.4391,75.1715V64.441a7.9977,7.9977,0,0,1,.2168-1.957,4.81,4.81,0,0,1,.5947-1.4356H124.276V58.9605h12.6729v2.0879h-2.1748a4.7029,4.7029,0,0,0-.5372,1.667,12.6836,12.6836,0,0,0-.13,1.7256v10.73Z"/><path class="cls-2" d="M140.5739,75.1715V62.3531l-.377-3.3926h2.668l.3769,3.3926V75.1715Z"/><path class="cls-2" d="M146.026,75.606l-.2617-1.8847a4.2764,4.2764,0,0,0,1.7988-.5079,2.0383,2.0383,0,0,0,.8838-1.1015,5.4084,5.4084,0,0,0,.2471-1.7549V58.9605h7.4531a5.7706,5.7706,0,0,1,2.5518.5361,3.8266,3.8266,0,0,1,1.7255,1.7256,6.8389,6.8389,0,0,1,.6231,3.1612V75.1715H158.38V64.2672a3.3277,3.3277,0,0,0-.7685-2.5088,2.9769,2.9769,0,0,0-2.1026-.71h-4.1465V70.067a6.8321,6.8321,0,0,1-.5654,2.9873,3.8485,3.8485,0,0,1-1.74,1.7685A8.2938,8.2938,0,0,1,146.026,75.606Z"/><path class="cls-2" d="M169.5446,75.606l-.2618-1.8847a4.2764,4.2764,0,0,0,1.7989-.5079,2.0383,2.0383,0,0,0,.8838-1.1015,5.4114,5.4114,0,0,0,.247-1.7549V58.9605h7.4532a5.77,5.77,0,0,1,2.5517.5361,3.8264,3.8264,0,0,1,1.7256,1.7256,6.84,6.84,0,0,1,.623,3.1612V75.1715h-2.6679V64.2672a3.3277,3.3277,0,0,0-.7686-2.5088,2.9768,2.9768,0,0,0-2.1025-.71h-4.1465V70.067a6.8336,6.8336,0,0,1-.5654,2.9873,3.8492,3.8492,0,0,1-1.74,1.7685A8.2932,8.2932,0,0,1,169.5446,75.606Z"/><path class="cls-2" d="M188.5387,75.1715V62.3531l-.377-3.3926h2.668l.377,3.3926V75.1715Z"/><path class="cls-2" d="M201.7047,75.1715V64.441a7.995,7.995,0,0,1,.2178-1.957,4.7615,4.7615,0,0,1,.5947-1.4356h-7.9756V58.9605h12.6739v2.0879H205.04a4.7042,4.7042,0,0,0-.5362,1.667,12.6953,12.6953,0,0,0-.1308,1.7256v10.73Z"/><path class="cls-2" d="M210.84,75.1715V62.3531l-.377-3.3926h2.668l.3769,3.3926V75.1715Z"/><path class="cls-2" d="M216.61,75.1715V73.0836h4.0019a4.7813,4.7813,0,0,0,2.48-.58,3.5139,3.5139,0,0,0,1.4493-1.7256,7.171,7.171,0,0,0,.4785-2.77V66.1236a7.0686,7.0686,0,0,0-.4785-2.7559,3.5993,3.5993,0,0,0-1.4493-1.7246,4.6867,4.6867,0,0,0-2.48-.5947H216.61V58.9605h4.61a6.9458,6.9458,0,0,1,3.5381.8408,5.2923,5.2923,0,0,1,2.19,2.48,9.5817,9.5817,0,0,1,.7392,3.958v1.6534a9.5519,9.5519,0,0,1-.7392,3.9726,5.3,5.3,0,0,1-2.19,2.4658,6.9448,6.9448,0,0,1-3.5381.8409Z"/><path class="cls-2" d="M230.3268,61.0484v-6.67h2.4355v6.67Zm3.3642,14.1231,5.51-14.1231h-8.874V58.9605h11.542v2.2617l-5.51,13.9493Z"/><path class="cls-2" d="M244.7106,75.1715l2.1172-11.252-2.2618-4.959h2.7549l2.03,5.0742-1.9727,11.1368Zm5.5683.0576.2608-2.0586a6.3483,6.3483,0,0,0,3.77-.1162,3.81,3.81,0,0,0,2.0586-2.2471,11.0146,11.0146,0,0,0,.58-4.1914,9.2119,9.2119,0,0,0-.5508-3.3779,3.68,3.68,0,0,0-1.3926-1.77,3.7365,3.7365,0,0,0-2.001-.5361,3.56,3.56,0,0,0-1.87.4639,3.4563,3.4563,0,0,0-1.2178,1.2324,5.2549,5.2549,0,0,0-.624,1.6963l-.7246-1.334a5.307,5.307,0,0,1,1.8848-3.2041,4.9366,4.9366,0,0,1,2.9873-1,6.5836,6.5836,0,0,1,2.3925.42,4.8157,4.8157,0,0,1,1.8995,1.3486,6.611,6.611,0,0,1,1.2753,2.4219,12.9781,12.9781,0,0,1,.4932,3.6387,11.476,11.476,0,0,1-.9853,5.4521,5.8874,5.8874,0,0,1-3.1612,2.9727A8.7524,8.7524,0,0,1,250.2789,75.2291Z"/><path class="cls-2" d="M83.3278,108.606l-.2608-1.8847a4.2759,4.2759,0,0,0,1.7979-.5079,2.0439,2.0439,0,0,0,.8847-1.1015,5.4106,5.4106,0,0,0,.2461-1.7549V91.9605h7.4532a5.7641,5.7641,0,0,1,2.5517.5361,3.8264,3.8264,0,0,1,1.7256,1.7256,6.8267,6.8267,0,0,1,.624,3.1612v10.7881H95.6823V97.2672a3.3318,3.3318,0,0,0-.7686-2.5088,2.9785,2.9785,0,0,0-2.1025-.71H88.6637v9.0186a6.8336,6.8336,0,0,1-.5654,2.9873,3.8492,3.8492,0,0,1-1.74,1.7685A8.2822,8.2822,0,0,1,83.3278,108.606Z"/><path class="cls-2" d="M109.776,108.1715V97.2672a3.2918,3.2918,0,0,0-.7832-2.5088,2.9883,2.9883,0,0,0-2.0879-.71H101.569V91.9605h5.9736a5.7645,5.7645,0,0,1,2.5518.5361,3.8266,3.8266,0,0,1,1.7255,1.7256,6.8253,6.8253,0,0,1,.6241,3.1612v10.7881Zm-8.207,0v-2.0879h12.9043v2.0879Z"/><path class="cls-2" d="M116.736,108.1715v-2.0879h4.0019a4.7813,4.7813,0,0,0,2.48-.58,3.52,3.52,0,0,0,1.45-1.7256,7.1879,7.1879,0,0,0,.4785-2.77V99.1236a7.0852,7.0852,0,0,0-.4785-2.7559,3.6058,3.6058,0,0,0-1.45-1.7246,4.6867,4.6867,0,0,0-2.48-.5947H116.736V91.9605h4.61a6.9458,6.9458,0,0,1,3.5381.8408,5.287,5.287,0,0,1,2.1895,2.48,9.5811,9.5811,0,0,1,.74,3.958v1.6534a9.5513,9.5513,0,0,1-.74,3.9726,5.2949,5.2949,0,0,1-2.1895,2.4658,6.9448,6.9448,0,0,1-3.5381.8409Z"/><path class="cls-2" d="M138.5153,108.1715V97.2672a3.2922,3.2922,0,0,0-.7832-2.5088,2.9883,2.9883,0,0,0-2.0879-.71h-5.2491V91.9605h5.8868a5.7641,5.7641,0,0,1,2.5517.5361,3.8264,3.8264,0,0,1,1.7256,1.7256,6.8267,6.8267,0,0,1,.624,3.1612v10.7881Z"/><path class="cls-2" d="M145.2428,108.1715V95.3531l-.377-3.3926h2.668l.377,3.3926v12.8184Z"/><path class="cls-2" d="M151.42,108.1715l2.1171-11.252-2.2617-4.959H154.03l2.0293,5.0742-1.9717,11.1368Zm5.5683.0576.2608-2.0586a6.3444,6.3444,0,0,0,3.7695-.1162,3.8081,3.8081,0,0,0,2.06-2.2471,11.0128,11.0128,0,0,0,.58-4.1914,9.21,9.21,0,0,0-.5507-3.3779,3.68,3.68,0,0,0-1.3926-1.77,3.7365,3.7365,0,0,0-2.001-.5361,3.558,3.558,0,0,0-1.87.4639,3.4664,3.4664,0,0,0-1.2188,1.2324,5.2533,5.2533,0,0,0-.623,1.6963l-.7246-1.334a5.3069,5.3069,0,0,1,1.8847-3.2041,4.9367,4.9367,0,0,1,2.9874-1,6.5794,6.5794,0,0,1,2.3916.42,4.812,4.812,0,0,1,1.9,1.3486,6.61,6.61,0,0,1,1.2754,2.4219,12.9781,12.9781,0,0,1,.4932,3.6387,11.4754,11.4754,0,0,1-.9863,5.4521,5.8807,5.8807,0,0,1-3.1612,2.9727A8.749,8.749,0,0,1,156.9879,108.2291Z"/><path class="cls-2" d="M174.2711,108.606l-.2607-1.8847a4.2759,4.2759,0,0,0,1.7978-.5079,2.044,2.044,0,0,0,.8848-1.1015,5.4106,5.4106,0,0,0,.2461-1.7549V91.9605h7.4531a5.7645,5.7645,0,0,1,2.5518.5361,3.8273,3.8273,0,0,1,1.7256,1.7256,6.8267,6.8267,0,0,1,.624,3.1612v10.7881h-2.668V97.2672a3.3318,3.3318,0,0,0-.7685-2.5088,2.9786,2.9786,0,0,0-2.1026-.71h-4.1474v9.0186a6.832,6.832,0,0,1-.5655,2.9873,3.8485,3.8485,0,0,1-1.74,1.7685A8.2828,8.2828,0,0,1,174.2711,108.606Z"/><path class="cls-2" d="M193.2662,108.1715V95.3531l-.3769-3.3926h2.668l.3769,3.3926v12.8184Z"/><path class="cls-2" d="M213.4791,108.1715H210.608l-6.3506-9.57-2.9873,9.57h-2.5517l3.1894-9.9766.7832-1.9717-2.6386-4.2627h2.6963l2.5234,4.002,2.5811,3.8564.6962-2.4648,1.5948-5.3936h2.581l-3.3066,10.1787Z"/><path class="cls-2" d="M216.611,102.0816V95.3531l-.378-3.3926h2.668l.3779,3.3926V99.732l-.0293,1.8271Z"/><path class="cls-2" d="M222.2653,108.1715v-2.0879H233.401l.7832,2.0879Zm10.0625,0-9.5411-16.211h2.7266l9.541,16.211Zm-1.5948-6.67-1.48-2.35,3.0459-7.1914h2.668Z"/><path class="cls-2" d="M238.0407,108.1715l2.1171-11.252-2.2617-4.959h2.7549l2.03,5.0742-1.9727,11.1368Zm5.5683.0576.2608-2.0586a6.3483,6.3483,0,0,0,3.77-.1162,3.81,3.81,0,0,0,2.0586-2.2471,11.0128,11.0128,0,0,0,.58-4.1914,9.21,9.21,0,0,0-.5507-3.3779,3.68,3.68,0,0,0-1.3926-1.77,3.7365,3.7365,0,0,0-2.001-.5361,3.56,3.56,0,0,0-1.87.4639,3.4555,3.4555,0,0,0-1.2178,1.2324,5.2549,5.2549,0,0,0-.624,1.6963l-.7246-1.334a5.3069,5.3069,0,0,1,1.8847-3.2041,4.9366,4.9366,0,0,1,2.9873-1,6.5841,6.5841,0,0,1,2.3926.42,4.8161,4.8161,0,0,1,1.8994,1.3486,6.61,6.61,0,0,1,1.2754,2.4219,12.9781,12.9781,0,0,1,.4932,3.6387,11.4748,11.4748,0,0,1-.9854,5.4521,5.8869,5.8869,0,0,1-3.1611,2.9727A8.7525,8.7525,0,0,1,243.609,108.2291Z"/><path class="cls-2" d="M263.8209,108.1715V97.2672a3.2918,3.2918,0,0,0-.7822-2.5088,2.9909,2.9909,0,0,0-2.0889-.71h-5.3359V91.9605h5.9746a5.7706,5.7706,0,0,1,2.5518.5361,3.8266,3.8266,0,0,1,1.7255,1.7256,6.8389,6.8389,0,0,1,.6231,3.1612v10.7881Zm-8.207,0v-2.0879h12.9053v2.0879Z"/></g></g></svg>