<svg xmlns="http://www.w3.org/2000/svg" width="350.7016" height="165.141" viewBox="0 0 350.7016 165.141"><defs><style>.cls-1{fill:#00a0ca;stroke:#383838;stroke-miterlimit:10;stroke-width:3px;opacity:0.9;}.cls-2{fill:#fff;}</style></defs><title>Asset 14sadna_btn</title><g id="Layer_2" data-name="Layer 2"><g id="Layer_1-2" data-name="Layer 1"><path class="cls-1" d="M344.9409,34.77c-.5975-9.1344-3.4973-18.1669-5.4664-27.2267-.9435-4.3394-3.835-6.1531-9.3572-5.9768-11.3193.3625-22.6668.0153-34.0008.1238C213.2073,2.4882,130.2147-.75,47.4146,5.1015c-13.0163.92-25.9035,3.2156-38.83,4.9844-5.0595.6922-7.3406,2.9911-7.062,7.8069,1.56,26.9946,2.378,81.6833,4.3067,108.6571.7445,10.407,3.686,20.7056,5.7379,31.0381.8645,4.3558,3.6847,6.0348,9.2436,6.0064,41.5608-.21,83.1235-.115,124.6857-.1139,27.2705,0,54.5526.4326,81.8071-.1227,27.225-.5542,54.452-1.74,81.6179-3.3756,11.5246-.6932,22.9209-3.1269,34.3249-4.9965,4.1507-.68,6.1506-2.8848,5.94-6.9362C347.7027,119.5118,346.8073,63.2886,344.9409,34.77Z"/><path class="cls-2" d="M70.8737,90.2465V79.3427a3.2906,3.2906,0,0,0-.7832-2.5088,2.9885,2.9885,0,0,0-2.0879-.71H62.7535V74.0355H68.64a5.7559,5.7559,0,0,1,2.5517.5367,3.825,3.825,0,0,1,1.7256,1.725,6.8267,6.8267,0,0,1,.624,3.1612V90.2465Z"/><path class="cls-2" d="M77.6012,90.2465V77.4286l-.377-3.3931h2.668l.377,3.3931V90.2465Z"/><path class="cls-2" d="M84.2418,90.2465V88.1586H89.23a5.9338,5.9338,0,0,0,1.8555-.2754,3.8152,3.8152,0,0,0,1.4648-.87,3.9651,3.9651,0,0,0,.9717-1.5659,7.1649,7.1649,0,0,0,.3477-2.3926v-1.856a7.97,7.97,0,0,0-.42-2.7554,3.4934,3.4934,0,0,0-1.291-1.7251,3.7707,3.7707,0,0,0-2.1748-.5947H87.1705l-.7246,3.0449a3.6941,3.6941,0,0,0,.0869,2.3492,2.63,2.63,0,0,0,1.9717,1.1308l-.4922,1.7691a5.2965,5.2965,0,0,1-2.7549-.8555,3.1076,3.1076,0,0,1-1.2187-1.8706,6.829,6.829,0,0,1,.0293-2.7256l1.1309-4.93h5.3076a5.9915,5.9915,0,0,1,3.2334.8409,5.42,5.42,0,0,1,2.0732,2.4506,9.6372,9.6372,0,0,1,.7246,3.9585v1.6529a9.769,9.769,0,0,1-.5068,3.3349,5.6358,5.6358,0,0,1-3.625,3.5674,8.4442,8.4442,0,0,1-2.6543.4058Z"/><path class="cls-2" d="M100.1051,84.1566v-6.728l-.3769-3.3931h2.6679l.377,3.3931v4.3789l-.0293,1.8272Z"/><path class="cls-2" d="M108.0221,90.5365l-1.7109-14.4131,2.4941-1.3052,1.5654,13.2823a12.0009,12.0009,0,0,0,2.2617-.377,7.5906,7.5906,0,0,0,1.9434-.812,5.1349,5.1349,0,0,0,1.48-1.334,5.6377,5.6377,0,0,0,.9131-1.9863,9.1356,9.1356,0,0,0,.2178-2.7695v-.7544a5.2856,5.2856,0,0,0-.3623-2.0152,3.1751,3.1751,0,0,0-1.0879-1.4067,2.9472,2.9472,0,0,0-1.77-.522h-7.6552l-.2618-2.0879h8.1495a5.1976,5.1976,0,0,1,4.0888,1.6241,6.579,6.579,0,0,1,1.5371,4.3208l.0293.8989a9.5759,9.5759,0,0,1-.7832,4.48,7.1334,7.1334,0,0,1-2.4941,2.9,11.8808,11.8808,0,0,1-3.8135,1.6241A24.6181,24.6181,0,0,1,108.0221,90.5365Z"/><path class="cls-2" d="M122.985,90.2465V82.3876l.3769-1.9429h2.2911v9.8018Zm9.89,0V79.3427a3.29,3.29,0,0,0-.7832-2.5088,2.9882,2.9882,0,0,0-2.0879-.71h-6.96V74.0355h7.5976a5.7563,5.7563,0,0,1,2.5518.5367,3.8207,3.8207,0,0,1,1.7256,1.725,6.8267,6.8267,0,0,1,.624,3.1612V90.2465Z"/><path class="cls-2" d="M144.3,76.1234v-6.67h2.4356v6.67Zm3.3633,14.1231,5.5107-14.1231H144.3V74.0355h11.542v2.2617l-5.5107,13.9493Z"/><path class="cls-2" d="M158.278,90.2465V88.1586H162.28a4.7813,4.7813,0,0,0,2.48-.58,3.5179,3.5179,0,0,0,1.45-1.7256,7.1879,7.1879,0,0,0,.4785-2.77V81.1986a7.0826,7.0826,0,0,0-.4785-2.7554,3.6071,3.6071,0,0,0-1.45-1.7251,4.6923,4.6923,0,0,0-2.48-.5947H158.278V74.0355h4.61a6.9448,6.9448,0,0,1,3.5381.8409,5.288,5.288,0,0,1,2.1894,2.4794,9.5806,9.5806,0,0,1,.74,3.9585v1.6534a9.5528,9.5528,0,0,1-.74,3.9726,5.293,5.293,0,0,1-2.1894,2.4653,6.9448,6.9448,0,0,1-3.5381.8409Z"/><path class="cls-2" d="M178.2877,90.2465V82.3876l.377-1.9429h2.291v9.8018Zm9.8887,0V79.3427a3.2863,3.2863,0,0,0-.7832-2.5088,2.9868,2.9868,0,0,0-2.0879-.71h-6.96V74.0355h7.5987a5.7617,5.7617,0,0,1,2.5517.5367,3.825,3.825,0,0,1,1.7256,1.725,6.8389,6.8389,0,0,1,.6231,3.1612V90.2465Z"/><path class="cls-2" d="M196.151,90.2465v-10.73a7.9508,7.9508,0,0,1,.2178-1.9575,4.7979,4.7979,0,0,1,.5937-1.4356h-2.8418V74.0355h7.5987v2.0879h-2.2627a4.0357,4.0357,0,0,0-.5362,1.6675,16.0564,16.0564,0,0,0-.1015,1.7256v10.73Z"/><path class="cls-2" d="M210.97,95.2343l-.6093-1.479a4.7448,4.7448,0,0,0,1.9716-1.479,3.4366,3.4366,0,0,0,.6963-2.1167l-.2607-2.1753,1.1885,1.769a1.1357,1.1357,0,0,1-.5508.3916,2.1787,2.1787,0,0,1-.667.1016,1.9422,1.9422,0,0,1-1.2617-.4351,1.7355,1.7355,0,0,1,.0146-2.5229,1.9238,1.9238,0,0,1,1.2764-.4639,1.775,1.775,0,0,1,1.5508.7685,3.6793,3.6793,0,0,1,.5371,2.1314,5.5561,5.5561,0,0,1-1.0293,3.32A6.4394,6.4394,0,0,1,210.97,95.2343Z"/><path class="cls-2" d="M225.5563,90.2465V79.3427a3.2907,3.2907,0,0,0-.7822-2.5088,2.9911,2.9911,0,0,0-2.0889-.71h-5.249V74.0355h5.8877a5.7617,5.7617,0,0,1,2.5517.5367,3.825,3.825,0,0,1,1.7256,1.725,6.84,6.84,0,0,1,.623,3.1612V90.2465Z"/><path class="cls-2" d="M232.2848,90.2465V77.4286l-.3779-3.3931h2.6679l.378,3.3931V90.2465Z"/><path class="cls-2" d="M237.9391,90.2465V88.1586h11.1357l.7832,2.0879Zm10.0625,0-9.541-16.211h2.7265l9.5411,16.211Zm-1.5947-6.67-1.48-2.3491,3.0459-7.1919h2.6679Z"/><path class="cls-2" d="M254.2662,84.1566v-6.728l-.3779-3.3931h2.668l.3779,3.3931v4.3789l-.0293,1.8272Z"/><path class="cls-2" d="M265.6334,90.2465l-.2324-2.0591a8.38,8.38,0,0,0,1.8125-.42,4.0086,4.0086,0,0,0,1.5078-.9571,4.8429,4.8429,0,0,0,1.0733-1.8413,11.2986,11.2986,0,0,0,.5371-2.9873l.4638-5.8579H260.442V74.0355h13.2246l-.1162,1.856-.4355,5.51a14.4758,14.4758,0,0,1-.6524,3.7412,8.1645,8.1645,0,0,1-1.4785,2.7407,6.4219,6.4219,0,0,1-2.291,1.7251A7.6737,7.6737,0,0,1,265.6334,90.2465Zm-5.1914,5.8V82.0394l.377-1.9721h2.291v15.979Z"/><path class="cls-2" d="M284.6285,90.2465V79.3427a3.29,3.29,0,0,0-.7822-2.5088,2.9908,2.9908,0,0,0-2.0889-.71h-5.3359V74.0355h5.9746a5.7624,5.7624,0,0,1,2.5518.5367,3.8254,3.8254,0,0,1,1.7256,1.725,6.84,6.84,0,0,1,.623,3.1612V90.2465Zm-8.207,0V88.1586h12.9053v2.0879Z"/></g></g></svg>